<?xml version="1.0" encoding="UTF-8"?>
<svg id="Layer_1" data-name="Layer 1" xmlns="http://www.w3.org/2000/svg" viewBox="0 0 320.45 176.65">
  <defs>
    <style>
      .cls-1 {
        fill: #b07a52;
      }

      .cls-2 {
        fill: #6f4327;
      }
    </style>
  </defs>
  <g>
    <path class="cls-1" d="M7.7,36.83S36.8,6.71,94.32,5.34c0,0,3.77,3.77,6.16,4.45,2.4.68,4.79,2.4,4.11,5.14s0,14.38,4.11,19.86c4.11,5.48,8.56,6.5,8.56,6.5,0,0,5.48-3.77,5.82,2.05.34,5.82,2.74,14.38,2.74,14.38,0,0,5.48,9.24,4.45,13.69-1.03,4.45-.34,5.48-.34,5.48,0,0,27.73-2.4,33.89.34s15.75,2.05,15.75,2.05l5.14-1.03,1.71-2.74s-.34-5.14,2.05-5.48c2.4-.34,0,.34,3.77-.34,3.77-.68,77.37-3.42,121.88,23.96l-1.03,74.29s-76.69,5.14-185.55,4.11c-108.87-1.03-120.51-5.14-120.51-5.14l.68-130.09Z"/>
    <path class="cls-2" d="M156.11,172.68c-9.26,0-18.79-.04-28.59-.13-107.71-1.02-120.19-4.99-120.66-5.16l-.33-.11.69-130.63.14-.14c.07-.08,7.49-7.67,21.86-15.33,13.24-7.05,35.29-15.61,65.09-16.32h.21s.15.14.15.14c.04.04,3.71,3.69,5.95,4.33,2.65.76,5.21,2.66,4.45,5.72-.66,2.63.05,14.15,4.03,19.45,3.47,4.63,7.22,6,8.09,6.27.68-.43,2.98-1.71,4.67-.88,1.03.51,1.61,1.66,1.72,3.44.32,5.45,2.49,13.44,2.7,14.22.5.86,5.5,9.54,4.47,13.99-.68,2.96-.58,4.33-.47,4.85,3.5-.29,27.87-2.2,33.75.41,5.98,2.66,15.42,2.02,15.52,2.01l4.87-.98,1.52-2.43c-.05-1.03-.11-5.46,2.48-5.83,1.07-.15,1.29-.12,1.53-.04.1.03.44.03,2.22-.3,5.44-.99,78.12-3.11,122.22,24.03l.24.14-1.04,75.01-.45.03c-.7.05-64.54,4.24-157,4.24ZM7.5,166.56c2.48.62,20.63,4.08,120.03,5.02,103.33.98,178.6-3.66,185.07-4.08l1.02-73.57c-23.11-14.13-53.95-19.93-75.78-22.3-24.28-2.64-43.74-1.78-45.52-1.46-2.15.39-2.41.36-2.7.27-.05-.02-.16-.05-1.09.08-1.59.23-1.72,3.75-1.64,4.96v.16s-1.9,3.05-1.9,3.05l-5.34,1.07c-.45.04-9.84.67-16.04-2.09-5.98-2.66-33.38-.33-33.65-.3l-.29.02-.16-.24c-.13-.2-.75-1.43.27-5.86.97-4.21-4.34-13.25-4.39-13.34l-.05-.12c-.02-.09-2.41-8.68-2.76-14.48-.08-1.4-.48-2.28-1.17-2.62-1.2-.59-3.21.48-3.89.94l-.18.12-.21-.05c-.19-.04-4.67-1.13-8.84-6.69-4.21-5.62-4.9-17.43-4.19-20.26.6-2.39-1.56-3.92-3.77-4.55-2.24-.64-5.48-3.71-6.22-4.43-29.49.74-51.3,9.2-64.41,16.18-13.19,7.02-20.46,13.98-21.52,15.03l-.68,129.53Z"/>
  </g>
  <g>
    <path class="cls-1" d="M5.48,137.31l-.17,3.59c63.45-10.27,172.89-5.99,172.89-5.99v-5.48c-115.03-3.42-172.72,7.87-172.72,7.87Z"/>
    <path class="cls-2" d="M5.31,141.39c-.12,0-.23-.04-.32-.12-.11-.1-.17-.24-.16-.38l.17-3.59c.01-.22.17-.41.39-.45.58-.11,59.06-11.27,172.82-7.88.26,0,.47.22.47.48v5.48c0,.13-.05.26-.15.35-.1.09-.22.14-.36.14-1.09-.04-110.12-4.16-172.79,5.98-.03,0-.05,0-.08,0ZM5.94,137.72l-.12,2.61c60.66-9.69,163.75-6.22,171.89-5.92v-4.5c-108.6-3.2-166.61,6.86-171.77,7.81Z"/>
  </g>
  <g>
    <path class="cls-1" d="M230.4,170.86v-39.37h-47.42s.17,17.97,3.08,27.05,8.22,13.69,8.22,13.69l36.12-1.37Z"/>
    <path class="cls-2" d="M194.28,172.72c-.12,0-.23-.04-.32-.12-.22-.19-5.44-4.81-8.36-13.91-2.9-9.04-3.1-26.45-3.1-27.19,0-.13.05-.25.14-.35.09-.09.22-.14.34-.14h47.42c.27,0,.49.22.49.49v39.37c0,.26-.21.47-.47.49l-36.12,1.37h-.02ZM183.48,131.98c.06,2.94.46,18.35,3.05,26.41,2.57,8.02,7.09,12.55,7.94,13.35l35.45-1.34v-38.42h-46.44ZM230.4,170.86h0,0Z"/>
  </g>
  <g>
    <polygon class="cls-1" points="182.3 132.35 182.3 135.94 231.26 135.94 231.26 132.69 182.3 132.35"/>
    <path class="cls-2" d="M231.26,136.43h-48.96c-.27,0-.49-.22-.49-.49v-3.59c0-.13.05-.25.14-.34.09-.09.21-.14.34-.14h0l48.96.34c.27,0,.48.22.48.49v3.25c0,.27-.22.49-.49.49ZM182.79,135.46h47.99v-2.29l-47.99-.33v2.62Z"/>
  </g>
  <g>
    <path class="cls-1" d="M74.77,56.72c-.34.08-6.46.46-7.5,9.74v16.24s13.03-2.55,17.88-2.2v-16.5s-.54-9.47-10.38-7.27Z"/>
    <path class="cls-2" d="M67.28,83.19c-.11,0-.22-.04-.31-.11-.11-.09-.18-.23-.18-.37v-16.24c.93-8.34,5.78-9.91,7.82-10.21l.16.47-.11-.47c3.15-.7,5.73-.32,7.65,1.13,3.04,2.3,3.31,6.41,3.32,6.59v16.53c0,.13-.05.26-.15.36-.1.09-.22.14-.37.13-4.72-.35-17.62,2.17-17.75,2.19-.03,0-.06,0-.09,0ZM67.76,82.7h0,0ZM77.55,56.88c-.83,0-1.72.11-2.67.32h0s-.12.02-.13.02c-1.82.26-6.14,1.69-6.99,9.3v15.59c2.51-.48,12.31-2.28,16.91-2.13v-15.99s-.26-3.82-2.94-5.84c-1.12-.85-2.52-1.27-4.18-1.27Z"/>
  </g>
  <g>
    <path class="cls-1" d="M101.59,53.76c-.34.08-6.46.46-7.5,9.74v16.24s13.03-1.48,17.88-1.13v-17.57s-.54-9.47-10.38-7.27Z"/>
    <path class="cls-2" d="M94.1,80.22c-.12,0-.23-.04-.32-.12-.1-.09-.16-.22-.16-.36v-16.24c.93-8.34,5.78-9.91,7.82-10.21l.16.47-.11-.47c3.15-.7,5.73-.32,7.65,1.13,3.04,2.3,3.31,6.41,3.32,6.59v17.6c0,.13-.06.26-.15.36s-.22.14-.37.13c-4.74-.35-17.66,1.12-17.79,1.13-.02,0-.04,0-.05,0ZM94.58,79.73h0,0ZM104.37,53.91c-.83,0-1.72.11-2.67.32h0s-.12.02-.13.02c-1.82.26-6.14,1.69-6.99,9.3v15.64c2.45-.27,12.32-1.3,16.91-1.1v-17.06s-.26-3.82-2.94-5.84c-1.12-.85-2.52-1.27-4.17-1.27Z"/>
  </g>
  <g>
    <path class="cls-1" d="M49.51,60.93c-.29.08-5.54.47-6.43,9.78v16.3s10.49-2.36,15.33-3.04v-15.73s-.46-9.51-8.9-7.3Z"/>
    <path class="cls-2" d="M43.09,87.49c-.11,0-.22-.04-.3-.11-.11-.09-.18-.23-.18-.38v-16.3c.8-8.35,4.99-9.94,6.75-10.24l.16.46-.12-.47c2.51-.66,4.61-.39,6.24.81,3.01,2.21,3.26,6.74,3.27,6.94v15.76c0,.24-.18.45-.42.48-4.76.67-15.18,3.02-15.29,3.04-.04,0-.07.01-.11.01ZM43.57,87.01h0,0ZM51.89,61.09c-.7,0-1.45.11-2.26.32h0s-.11.02-.12.02c-1.54.26-5.21,1.69-5.94,9.33v15.65c2.22-.49,10.1-2.22,14.36-2.86v-15.31s-.24-4.25-2.88-6.18c-.88-.64-1.93-.96-3.16-.96Z"/>
  </g>
  <g>
    <path class="cls-1" d="M31.33,67.57c-.2.07-3.77.41-4.37,8.68v14.46s7.14-2.09,10.43-2.7v-13.96s-.31-8.44-6.06-6.48Z"/>
    <path class="cls-2" d="M26.95,91.2c-.1,0-.21-.03-.29-.1-.12-.09-.19-.24-.19-.39v-14.46c.54-7.44,3.47-8.87,4.7-9.14l.16.46-.16-.46c1.53-.52,2.86-.41,3.94.34,2.55,1.75,2.75,6.39,2.76,6.58v13.98c0,.23-.17.43-.4.48-3.23.6-10.31,2.67-10.38,2.69-.04.01-.09.02-.14.02ZM27.44,90.72h0,0ZM32.95,67.76c-.45,0-.94.09-1.47.27h0s-.09.02-.11.03c-.8.18-3.43,1.29-3.94,8.23v13.78c1.73-.5,6.63-1.89,9.46-2.46v-13.56s-.19-4.33-2.34-5.8c-.48-.33-1.01-.49-1.61-.49Z"/>
  </g>
  <g>
    <path class="cls-1" d="M17.59,72.65c-.15.07-2.85.41-3.31,8.7v14.5s5.4-2.83,7.89-3.44v-13.27s-.24-8.46-4.58-6.49Z"/>
    <path class="cls-2" d="M14.28,96.33c-.09,0-.17-.02-.25-.07-.14-.09-.23-.25-.23-.41v-14.5c.4-7.16,2.43-8.8,3.61-9.15h-.02c1.04-.46,1.97-.45,2.77.05,2.32,1.45,2.49,6.66,2.5,6.88v13.28c0,.22-.15.42-.37.47-2.4.59-7.73,3.37-7.78,3.4-.07.04-.15.06-.23.06ZM14.77,95.85h0,0ZM17.79,73.09s-.08.03-.11.04c-.59.17-2.53,1.28-2.92,8.25v13.68c1.47-.75,4.86-2.42,6.92-3.02v-12.89c-.04-1.35-.48-5.09-2.04-6.07-.51-.32-1.12-.32-1.85.02h0Z"/>
  </g>
  <g>
    <path class="cls-1" d="M9.39,77.04c-.07.06-1.26.38-1.47,8.01v13.35s2.39-1.32,3.5-1.88v-13.5s-.1-7.79-2.03-5.98Z"/>
    <path class="cls-2" d="M7.92,98.88c-.09,0-.17-.02-.25-.07-.15-.09-.24-.25-.24-.42v-13.35c.13-4.94.69-7.76,1.65-8.39.51-.46.94-.42,1.22-.3,1.37.58,1.57,4.85,1.6,6.65v13.51c0,.18-.1.35-.27.43-1.08.55-3.46,1.86-3.48,1.87-.07.04-.15.06-.23.06ZM8.41,98.4h0,0ZM9.72,77.39s-.07.06-.1.07c-.04.03-1.03.71-1.21,7.6v12.52c.71-.39,1.78-.97,2.53-1.36v-13.21c-.04-2.85-.52-5.6-1.01-5.77,0,0-.07.01-.21.14h0ZM9.12,76.64h0Z"/>
  </g>
  <g>
    <path class="cls-1" d="M72.89,99.48c-.34.08-6.46.47-7.5,9.96v16.6s13.12-1.34,17.97-.98l-.09-18.14s-.54-9.68-10.38-7.43Z"/>
    <path class="cls-2" d="M65.39,126.52c-.12,0-.24-.04-.32-.12-.1-.09-.16-.22-.16-.36v-16.6c.93-8.51,5.77-10.12,7.82-10.42l.17.46-.11-.47c3.12-.71,5.67-.34,7.59,1.1,3.1,2.34,3.37,6.59,3.38,6.78l.09,18.16c0,.14-.06.27-.15.36-.1.09-.22.14-.37.13-4.74-.34-17.75.97-17.88.98-.02,0-.03,0-.05,0ZM65.88,126.03h0,0ZM73,99.95s-.07.01-.13.02c-1.82.27-6.14,1.73-6.99,9.52v16.01c2.45-.24,12.39-1.18,17-.96l-.09-17.62s-.26-3.97-3-6.03c-1.68-1.26-3.96-1.57-6.78-.93h0Z"/>
  </g>
  <g>
    <path class="cls-1" d="M101.59,96.7c-.34.08-6.46.48-7.5,10.16v16.94s13.03-1.55,17.88-1.18v-18.33s-.54-9.88-10.38-7.58Z"/>
    <path class="cls-2" d="M94.1,124.28c-.12,0-.23-.04-.32-.12-.1-.09-.16-.22-.16-.36v-16.94c.93-8.68,5.77-10.32,7.81-10.63l.17.46-.11-.47c3.08-.72,5.62-.36,7.53,1.08,3.16,2.37,3.43,6.77,3.44,6.95v18.36c0,.13-.06.26-.15.36-.1.09-.23.14-.37.13-4.75-.36-17.65,1.16-17.78,1.18-.02,0-.04,0-.06,0ZM94.58,123.8h0,0ZM104.37,96.84c-.83,0-1.72.11-2.67.33h0s-.07.01-.13.02c-1.82.27-6.14,1.77-6.99,9.72v16.34c2.45-.28,12.31-1.35,16.91-1.15v-17.82s-.26-4.11-3.06-6.21c-1.1-.82-2.46-1.24-4.06-1.24Z"/>
  </g>
  <g>
    <path class="cls-1" d="M131.38,96.7c-.34.08-6.46.48-7.5,10.16v16.07s13.03-.68,17.88-.32v-18.33s-.54-9.88-10.38-7.58Z"/>
    <path class="cls-2" d="M123.88,123.42c-.12,0-.24-.05-.33-.13-.1-.09-.15-.22-.15-.35v-16.07c.93-8.68,5.77-10.32,7.81-10.63l.17.46-.11-.47c3.08-.72,5.62-.36,7.53,1.08,3.16,2.37,3.43,6.77,3.44,6.95v18.36c0,.13-.05.26-.15.36-.1.09-.23.14-.37.13-4.76-.36-17.69.31-17.82.32,0,0-.02,0-.03,0ZM124.36,122.94h0,0ZM134.16,96.84c-.83,0-1.72.11-2.67.33h0s-.07.01-.13.02c-1.82.27-6.14,1.77-6.99,9.72v15.51c2.39-.12,12.3-.58,16.91-.33v-17.82s-.26-4.11-3.06-6.21c-1.1-.82-2.46-1.24-4.06-1.24Z"/>
  </g>
  <g>
    <path class="cls-1" d="M49.14,102.9c-.27.08-5.24.48-6.08,10.15v15s9.93-.53,14.51-1.24v-16.33s-.44-9.87-8.42-7.58Z"/>
    <path class="cls-2" d="M43.06,128.54c-.12,0-.24-.05-.33-.13-.1-.09-.15-.22-.15-.35v-15c.75-8.65,4.73-10.3,6.4-10.61l.17.46-.13-.47c2.27-.65,4.19-.43,5.71.66,3.07,2.21,3.32,7.15,3.33,7.36v16.35c0,.24-.17.44-.41.48-4.55.71-14.46,1.24-14.56,1.25,0,0-.02,0-.03,0ZM43.55,128.05h0,0ZM49.28,103.37h0s-.11.02-.12.03c-1.46.27-4.92,1.76-5.61,9.7v14.44c2.02-.12,9.51-.57,13.54-1.15v-15.91s-.24-4.66-2.93-6.59c-1.26-.91-2.91-1.08-4.88-.52Z"/>
  </g>
  <g>
    <path class="cls-1" d="M31.5,107.17c-.2.07-3.77.41-4.37,8.68v14.46s7.14-.78,10.43-1.39v-15.28s-.31-8.44-6.06-6.48Z"/>
    <path class="cls-2" d="M27.13,130.8c-.12,0-.23-.04-.32-.12-.1-.09-.16-.22-.16-.36v-14.46c.54-7.44,3.47-8.87,4.7-9.14l.16.46-.16-.46c1.53-.52,2.86-.41,3.94.34,2.55,1.75,2.75,6.39,2.76,6.58v15.3c0,.23-.17.43-.4.48-3.27.61-10.4,1.38-10.47,1.39-.02,0-.04,0-.05,0ZM27.61,130.31h0,0ZM33.13,107.36c-.45,0-.94.09-1.47.27h0s-.09.02-.11.03c-.8.18-3.43,1.29-3.94,8.23v13.89c1.64-.18,6.65-.76,9.46-1.25v-14.87s-.19-4.33-2.34-5.8c-.47-.33-1.01-.49-1.61-.49Z"/>
  </g>
  <g>
    <path class="cls-1" d="M17.76,108.85c-.15.07-2.85.41-3.31,8.7v14.5s5.4-.98,7.89-1.59v-15.12s-.24-8.46-4.58-6.49Z"/>
    <path class="cls-2" d="M14.45,132.54c-.11,0-.22-.04-.31-.11-.11-.09-.17-.23-.17-.37v-14.5c.39-7.16,2.43-8.81,3.61-9.15h0c1.03-.46,1.95-.44,2.75.05,2.32,1.45,2.49,6.66,2.5,6.88v15.13c0,.22-.15.42-.37.47-2.47.61-7.86,1.58-7.92,1.59-.03,0-.06,0-.09,0ZM14.94,132.05h0,0ZM18.99,109.04c-.31,0-.65.08-1.02.25h0s-.08.03-.11.04c-.59.17-2.53,1.27-2.92,8.25v13.89c1.37-.25,4.87-.91,6.92-1.39v-14.74c-.04-1.35-.48-5.09-2.04-6.07-.25-.16-.53-.24-.83-.24ZM17.76,108.85h0,0Z"/>
  </g>
  <g>
    <path class="cls-1" d="M9.56,111.84c-.07.06-1.26.38-1.47,8.01v13.35s2.39-.12,3.5-.68v-14.7s-.1-7.79-2.03-5.98Z"/>
    <path class="cls-2" d="M8.09,133.69c-.12,0-.24-.05-.33-.13-.1-.09-.15-.22-.15-.35v-13.35c.13-4.94.69-7.76,1.65-8.39.51-.46.94-.41,1.22-.3,1.37.58,1.57,4.85,1.6,6.65v14.71c0,.18-.1.35-.27.43-1.18.6-3.59.73-3.69.74,0,0-.02,0-.02,0ZM8.58,133.21h0,0ZM10.1,112.06s-.07.01-.21.14c0,0,0,0,0,0-.02.02-.07.05-.1.07-.04.03-1.03.7-1.21,7.6v12.81c.72-.07,1.82-.22,2.53-.48v-14.38c-.04-2.85-.52-5.6-1.01-5.77ZM9.56,111.84h0,0Z"/>
  </g>
  <g>
    <path class="cls-1" d="M74.02,170.38c2.89.04,5.78.11,8.67.2l-.08-20.34s-.54-11.63-10.39-8.93c-.34.09-6.47.57-7.51,11.97v17.13c3.1-.06,6.2-.07,9.3-.03Z"/>
    <path class="cls-2" d="M82.69,171.06h-.02c-3.09-.1-5.92-.17-8.66-.2-2.96-.04-6.09-.03-9.29.03h0c-.13,0-.25-.05-.34-.14-.09-.09-.14-.22-.14-.35v-17.13c.92-10.13,5.77-12.06,7.81-12.42,2.89-.79,5.27-.5,7.13.86,3.61,2.63,3.92,8.27,3.93,8.51l.08,20.36c0,.13-.05.26-.15.35-.09.09-.21.14-.34.14ZM70.55,169.87c1.18,0,2.34,0,3.48.02h0c2.59.03,5.28.09,8.18.19l-.07-19.83s-.29-5.4-3.53-7.75c-1.61-1.17-3.71-1.41-6.25-.71-.03,0-.07.02-.14.03-1.82.32-6.15,2.09-7.01,11.51v16.6c1.82-.03,3.6-.05,5.35-.05Z"/>
  </g>
  <g>
    <path class="cls-1" d="M96.21,171.31c4.93.39,9.93.88,14.9.78v-22.42s-.54-12.97-10.47-9.95c-.34.1-6.52.64-7.56,13.34v18.04c1.05.07,2.09.13,3.14.22Z"/>
    <path class="cls-2" d="M109.72,172.58c-3.87,0-7.77-.32-11.56-.63l-1.98-.16h0c-.75-.06-1.5-.11-2.25-.16l-.88-.06c-.25-.02-.45-.23-.45-.48v-18.04c.93-11.25,5.8-13.39,7.86-13.79,2.76-.83,5.06-.59,6.89.71,3.93,2.79,4.25,9.4,4.26,9.68v22.44c0,.26-.21.48-.47.49-.47,0-.94.01-1.4.01ZM96.25,170.82l1.98.16c4.07.33,8.27.67,12.39.62v-21.94s-.31-6.4-3.85-8.91c-1.58-1.12-3.59-1.31-5.99-.58-.03,0-.08.02-.14.03-1.84.36-6.21,2.34-7.08,12.88v17.55s.43.03.43.03c.75.05,1.51.1,2.26.16h0Z"/>
  </g>
  <g>
    <path class="cls-1" d="M134.29,172.03c2.7.09,5.41.17,8.11.2v-21.54s-.6-12.97-11.52-9.95c-.37.1-7.17.64-8.32,13.34v17.82c3.91-.09,7.82.01,11.72.14Z"/>
    <path class="cls-2" d="M142.4,172.71h0c-2.71-.02-5.46-.11-8.12-.2h0c-3.75-.12-7.74-.23-11.7-.14-.13,0-.26-.05-.35-.14-.09-.09-.15-.22-.15-.35v-17.82c1.02-11.25,6.36-13.39,8.61-13.79,3.18-.87,5.8-.55,7.84.93,4,2.91,4.34,9.19,4.35,9.46v21.56c0,.13-.05.25-.14.34-.09.09-.21.14-.34.14ZM125.71,171.38c2.92,0,5.82.08,8.59.17h0c2.49.08,5.07.16,7.61.19v-21.05s-.33-6.07-3.95-8.7c-1.79-1.3-4.13-1.57-6.95-.79-.03,0-.08.02-.15.03-2.03.36-6.86,2.34-7.81,12.88v17.28c.89-.02,1.78-.03,2.67-.03Z"/>
  </g>
  <g>
    <path class="cls-1" d="M156.96,172.03c5.42.07,10.83.33,16.25.47v-21.81s-.6-12.97-11.52-9.95c-.37.1-7.17.64-8.32,13.34v17.97c1.2-.02,2.39-.03,3.59-.02Z"/>
    <path class="cls-2" d="M173.21,172.98h-.01c-2-.05-4.01-.12-6.01-.19-3.35-.12-6.82-.24-10.23-.28h0c-1.19-.01-2.38,0-3.57.02-.14-.03-.26-.05-.35-.14-.09-.09-.14-.22-.14-.35v-17.97c1.02-11.25,6.36-13.39,8.61-13.79,3.18-.87,5.8-.55,7.84.93,4,2.91,4.34,9.19,4.35,9.46v21.83c0,.13-.05.26-.15.35-.09.09-.21.14-.34.14ZM155.89,171.54c.36,0,.72,0,1.08,0h0c3.42.04,6.89.16,10.25.28,1.83.06,3.67.13,5.5.18v-21.31s-.33-6.07-3.95-8.7c-1.79-1.3-4.13-1.57-6.95-.79-.03,0-.08.02-.15.03-2.03.36-6.86,2.34-7.81,12.88v17.44c.68-.01,1.36-.02,2.04-.02Z"/>
  </g>
  <g>
    <path class="cls-1" d="M209.04,171.5c5.7.07,11.39-.61,17.09-.46v-21.26s-.63-13.2-12.11-10.13c-.39.11-7.54.65-8.75,13.58v18.3c1.26-.02,2.51-.03,3.77-.02Z"/>
    <path class="cls-2" d="M205.27,172c-.13,0-.25-.05-.34-.14-.09-.09-.14-.22-.14-.35v-18.3c1.07-11.45,6.68-13.63,9.04-14.03,3.4-.9,6.18-.55,8.34,1.03,4.1,2.99,4.44,9.27,4.45,9.54v21.29c0,.13-.05.26-.15.35-.09.09-.2.15-.35.14-2.99-.08-6.02.07-8.95.22-2.66.13-5.41.27-8.13.24h0c-1.25-.02-2.51,0-3.76.02h0ZM217.25,139.66c-.97,0-2,.15-3.11.44-.03,0-.08.02-.16.03-2.14.37-7.23,2.39-8.23,13.12v17.76c1.1-.02,2.2-.02,3.3-.01,2.69.03,5.42-.11,8.07-.24,2.79-.14,5.67-.29,8.53-.23v-20.77s-.34-6.07-4.06-8.78c-1.21-.88-2.66-1.33-4.33-1.33Z"/>
  </g>
  <g>
    <path class="cls-1" d="M51.79,170.85c1.73.01,3.46-.06,5.18-.14v-19.22s-.43-11.34-8.32-8.7c-.27.09-5.18.56-6.01,11.66v15.8c3.04.32,6.09.58,9.15.6Z"/>
    <path class="cls-2" d="M52.15,171.33c-.12,0-.25,0-.37,0h0c-3.22-.02-6.46-.32-9.2-.61-.25-.03-.43-.23-.43-.48v-15.8c.74-9.87,4.66-11.76,6.32-12.12,2.1-.7,3.89-.54,5.34.47,3.38,2.34,3.64,8.42,3.65,8.68v19.24c0,.26-.2.47-.46.48-1.55.08-3.21.14-4.84.14ZM51.79,170.36c1.58,0,3.18-.05,4.7-.12v-18.76s-.26-5.84-3.24-7.9c-1.18-.82-2.68-.94-4.45-.35-.02,0-.11.03-.13.03-1.44.31-4.87,2.03-5.55,11.21v15.33c2.62.27,5.66.53,8.67.56h0Z"/>
  </g>
  <g>
    <path class="cls-1" d="M29.9,169.07c2.44.1,4.87.33,7.3.59v-19.49s-.31-9.69-5.98-7.44c-.19.08-3.72.47-4.32,9.97v16.27c1,.03,2.01.06,3.01.1Z"/>
    <path class="cls-2" d="M37.2,170.14s-.03,0-.05,0c-2.17-.23-4.74-.48-7.27-.59-1-.04-2-.07-3-.1-.26,0-.47-.22-.47-.49v-16.27c.53-8.48,3.42-10.11,4.63-10.42,1.4-.55,2.63-.49,3.66.19,2.76,1.81,2.97,7.45,2.98,7.69v19.51c0,.14-.06.27-.16.36-.09.08-.2.12-.32.12ZM27.38,168.49c.85.02,1.7.05,2.54.09h0c2.35.1,4.72.32,6.79.54v-18.95s-.2-5.36-2.54-6.9c-.76-.5-1.67-.53-2.78-.09-.02,0-.09.03-.11.03-.79.2-3.4,1.48-3.9,9.52v15.77Z"/>
  </g>
  <g>
    <path class="cls-1" d="M22.17,168.84v-15.75s-.23-12.63-4.53-10.37c-.15.08-2.82.48-3.27,9.99v15.64c2.58.27,5.19.4,7.79.48Z"/>
    <path class="cls-2" d="M22.17,169.32h-.01c-2.15-.07-4.99-.18-7.83-.48-.25-.03-.43-.23-.43-.48v-15.64c.39-8.16,2.39-10.04,3.56-10.44.98-.52,1.75-.3,2.22-.02,2.74,1.62,2.97,9.89,2.99,10.83v15.75c0,.13-.05.26-.15.35-.09.09-.21.14-.34.14ZM14.86,167.93c2.45.24,4.87.35,6.82.41v-15.25c-.04-2.39-.58-8.86-2.51-10-.24-.14-.64-.29-1.3.06-.02.01-.09.04-.11.05-1.2.41-2.59,3.13-2.9,9.54v15.18Z"/>
  </g>
  <g>
    <path class="cls-1" d="M11.54,167.99v-18.43s-.1-8.95-2.01-6.87c-.07.07-1.25.44-1.45,9.2v15.34s.03.04.08.1c1.12.26,2.24.48,3.37.66Z"/>
    <path class="cls-2" d="M11.54,168.48s-.05,0-.07,0c-1.15-.18-2.3-.4-3.41-.66-.1-.02-.19-.08-.26-.16l-.08-.1c-.07-.09-.11-.2-.11-.31v-15.34c.13-5.69.68-8.91,1.64-9.59.43-.48.87-.47,1.15-.36,1.4.54,1.61,5.5,1.64,7.6v18.43c0,.14-.06.28-.17.37-.09.08-.2.12-.32.12ZM8.57,166.93c.81.19,1.65.35,2.48.49v-17.86c-.04-3.27-.5-6.38-1-6.69,0,.01-.07.05-.16.15-.02.03-.07.06-.1.08-.04.03-1.04.82-1.22,8.8v15.02Z"/>
  </g>
  <g>
    <path class="cls-1" d="M161.94,95.92c.35.08,6.78.49,7.87,10.23v16.19s-13.68-.69-18.76-.32v-18.46s.56-9.95,10.89-7.64Z"/>
    <path class="cls-2" d="M169.81,122.82s-.02,0-.02,0c-.14,0-13.71-.68-18.7-.32-.15.01-.27-.04-.37-.13-.1-.09-.15-.22-.15-.36v-18.46c.01-.21.29-4.52,3.48-6.93,2.01-1.52,4.7-1.92,8-1.18,2.21.32,7.28,1.98,8.25,10.65v16.24c0,.13-.05.26-.15.35-.09.09-.21.13-.33.13ZM155.23,121.42c5.22,0,12.15.31,14.1.4v-15.68c-.89-7.95-5.44-9.46-7.35-9.74-.07,0-.11-.02-.14-.02-3-.67-5.43-.34-7.2,1-2.83,2.13-3.1,6.15-3.1,6.19v17.92c1.02-.06,2.3-.08,3.69-.08Z"/>
  </g>
  <g>
    <path class="cls-1" d="M186.31,95.92c-.35.08-6.78.49-7.87,10.23v16.19s13.68.23,18.76.6v-19.38s-.56-9.95-10.89-7.64Z"/>
    <path class="cls-2" d="M197.2,123.42s-.02,0-.04,0c-5.01-.36-18.6-.59-18.73-.6-.26,0-.48-.22-.48-.49v-16.19c.97-8.73,6.05-10.39,8.18-10.7l.17.46-.11-.47c3.3-.74,5.99-.34,8.01,1.18,3.19,2.41,3.47,6.72,3.48,6.9v19.41c0,.13-.05.26-.15.36-.09.08-.21.13-.33.13ZM178.92,121.86c2.38.04,12.99.25,17.79.56v-18.86s-.27-4.03-3.1-6.16c-1.78-1.34-4.2-1.67-7.2-1-.03,0-.07.01-.14.02-1.91.28-6.46,1.78-7.35,9.79v15.66ZM178.92,122.34h0,0Z"/>
  </g>
  <g>
    <g>
      <path class="cls-1" d="M268.28,106.25c-5.37-2.06-5.67,6.8-5.67,6.8l-.04,14.9c3.23.26,6.51.54,9.8.84v-13.42c-.57-8.67-3.91-9.03-4.09-9.11Z"/>
      <path class="cls-2" d="M272.37,129.26s-.03,0-.04,0c-3.29-.3-6.57-.58-9.8-.84-.25-.02-.45-.23-.45-.48l.04-14.89c0-.23.2-5.33,2.78-7.04.99-.66,2.18-.73,3.53-.22,1.19.3,3.92,1.81,4.42,9.53v13.46c0,.14-.06.27-.16.36-.09.08-.21.13-.33.13ZM263.05,127.49c2.91.23,5.87.48,8.83.76v-12.89c-.48-7.27-2.93-8.44-3.67-8.62-.02,0-.09-.02-.11-.03-1.06-.41-1.93-.37-2.66.11-2.16,1.43-2.34,6.2-2.34,6.25l-.04,14.43Z"/>
    </g>
    <g>
      <path class="cls-1" d="M253.26,103.57c-6.86-2.17-7.24,7.16-7.24,7.16v16.06c4,.24,8.18.52,12.46.84v-14.46c-.72-9.14-4.99-9.52-5.23-9.59Z"/>
      <path class="cls-2" d="M258.49,128.11s-.02,0-.04,0c-4.02-.3-8.21-.58-12.46-.84-.26-.02-.46-.23-.46-.48v-16.06c0-.23.24-5.14,3.09-7.15,1.29-.91,2.89-1.07,4.76-.48,1.49.3,4.93,1.88,5.58,10.02v14.5c0,.13-.05.26-.15.36-.09.08-.21.13-.33.13ZM246.51,126.33c3.91.24,7.77.5,11.49.78v-13.94c-.59-7.46-3.53-8.85-4.77-9.1-.02,0-.1-.02-.11-.03,0,0,0,0,0,0-1.57-.5-2.89-.38-3.93.34-2.46,1.73-2.68,6.33-2.68,6.37v15.58Z"/>
    </g>
    <g>
      <path class="cls-1" d="M236.66,102.72c-6.86-2.24-7.24,7.4-7.24,7.4v15.78c3.82.17,8.01.38,12.46.63v-13.9c-.72-9.45-4.99-9.84-5.23-9.92Z"/>
      <path class="cls-2" d="M241.88,127.02s-.02,0-.03,0c-4.12-.23-8.32-.45-12.46-.63-.26-.01-.46-.22-.46-.48v-15.78c0-.24.24-5.39,3.16-7.42,1.28-.89,2.86-1.04,4.7-.45,1.49.32,4.93,1.94,5.57,10.35v13.94c0,.13-.05.26-.15.35-.09.09-.21.13-.33.13ZM229.9,125.44c3.82.17,7.69.37,11.49.58v-13.39c-.59-7.72-3.54-9.17-4.78-9.43-.02,0-.1-.02-.12-.03h0c-1.54-.5-2.84-.4-3.86.31-2.52,1.75-2.74,6.6-2.75,6.65v15.3Z"/>
    </g>
    <g>
      <path class="cls-1" d="M215.53,101.14c-.24.08-4.66.48-5.41,10.06v14.03c2.74.07,7.21.19,12.9.41v-17s-.39-9.78-7.49-7.51Z"/>
      <path class="cls-2" d="M223.02,126.12h-.02c-5.73-.22-10.17-.35-12.89-.41-.26,0-.47-.22-.47-.48v-14.03c.67-8.56,4.23-10.21,5.73-10.52,0,0,.02,0,.02,0,1.92-.61,3.57-.45,4.9.48,2.97,2.08,3.21,7.25,3.22,7.47v17.02c0,.13-.05.26-.15.35-.09.09-.21.14-.34.14ZM210.61,125.23h0,0ZM210.61,124.75c2.66.07,6.75.18,11.93.38v-16.49s-.23-4.9-2.81-6.7c-1.07-.75-2.43-.87-4.05-.35-.02,0-.1.03-.12.03-1.28.27-4.34,1.73-4.95,9.6v13.52Z"/>
    </g>
    <g>
      <path class="cls-1" d="M280.67,107.97c-4.24-2.18-4.47,7.2-4.47,7.2v13.97c2.57.25,5.14.52,7.7.8v-12.33c-.45-9.19-3.08-9.57-3.23-9.65Z"/>
      <path class="cls-2" d="M283.9,130.43s-.04,0-.05,0c-2.56-.28-5.13-.55-7.69-.8-.25-.02-.44-.23-.44-.48v-13.97c.02-.65.22-6.29,2.59-7.69.75-.45,1.61-.43,2.56.05,1.17.4,3.14,2.23,3.52,10.07v12.35c0,.14-.06.27-.16.36-.09.08-.21.12-.32.12ZM276.68,128.7c2.24.22,4.49.45,6.73.7v-11.79c-.3-6.16-1.67-8.78-2.86-9.17-.02,0-.09-.03-.11-.04h0c-.65-.33-1.18-.36-1.65-.09-1.62.96-2.08,5.29-2.12,6.87v13.52Z"/>
    </g>
    <g>
      <path class="cls-1" d="M292.02,111.33c-4.2-1.84-4.43,6.07-4.43,6.07v12.96c2.57.3,5.11.62,7.64.95v-11.85c-.44-7.75-3.06-8.07-3.2-8.14Z"/>
      <path class="cls-2" d="M295.22,131.8s-.04,0-.06,0c-2.52-.34-5.07-.65-7.63-.95-.24-.03-.43-.24-.43-.48v-12.96c0-.22.17-5.04,2.38-6.44.78-.49,1.69-.52,2.7-.08,1.17.34,3.14,1.89,3.52,8.56v11.88c0,.14-.06.27-.16.36-.09.08-.2.12-.32.12ZM288.07,129.93c2.24.26,4.46.54,6.67.83v-11.3c-.37-6.48-2.24-7.5-2.81-7.66-.02,0-.08-.03-.1-.03,0,0,0,0,0,0-.72-.32-1.32-.32-1.82,0-1.48.93-1.9,4.39-1.93,5.64v12.52Z"/>
    </g>
    <g>
      <path class="cls-1" d="M302.88,113.51c-3.77-1.79-3.98,5.91-3.98,5.91v12.4c2.32.33,4.6.67,6.85,1.04v-11.43c-.4-7.54-2.74-7.86-2.87-7.92Z"/>
      <path class="cls-2" d="M305.75,133.34s-.05,0-.08,0c-2.2-.35-4.5-.7-6.84-1.03-.24-.03-.42-.24-.42-.48v-12.4c.01-.53.19-5.08,2.25-6.34.7-.43,1.5-.44,2.39-.02,1.05.33,2.83,1.86,3.17,8.34v11.46c0,.14-.06.28-.17.37-.09.07-.2.12-.31.12ZM299.39,131.4c2.01.29,3.98.58,5.88.89v-10.86c-.26-5-1.46-7.13-2.49-7.44-.02,0-.08-.03-.1-.04h0c-.59-.28-1.09-.3-1.5-.04-1.37.84-1.75,4.27-1.79,5.53v11.97Z"/>
    </g>
    <g>
      <path class="cls-1" d="M312.93,123.52c-.2-6.94-1.4-7.24-1.47-7.29-1.93-1.65-2.03,5.44-2.03,5.44v11.8c1.18.2,2.34.41,3.5.63v-10.58Z"/>
      <path class="cls-2" d="M312.93,134.59s-.06,0-.09,0c-1.15-.21-2.31-.42-3.49-.63-.23-.04-.4-.24-.4-.48v-11.8c.02-1.28.19-5.47,1.56-6.09.28-.13.73-.18,1.27.28.93.5,1.5,3.09,1.64,7.65h0v10.59c0,.14-.06.28-.18.37-.09.07-.2.11-.31.11ZM309.92,133.06c.85.15,1.69.3,2.53.45v-9.99c-.18-6.23-1.16-6.84-1.2-6.86-.03-.02-.07-.05-.1-.07-.12-.1-.21-.14-.24-.13-.49.22-.95,2.66-.99,5.21v11.38Z"/>
    </g>
  </g>
  <g>
    <g>
      <path class="cls-1" d="M283.54,169.51v-12.39c-.46-11.74-3.19-12.23-3.34-12.33-4.39-2.79-4.63,9.2-4.63,9.2l-.03,15.66c2.67-.04,5.34-.08,8-.14Z"/>
      <path class="cls-2" d="M275.54,170.13c-.13,0-.25-.05-.34-.14-.09-.09-.15-.22-.15-.35l.03-15.66c.02-.87.24-8.43,2.91-9.86.51-.28,1.35-.45,2.46.25,1.14.46,3.18,2.76,3.57,12.72v12.41c0,.26-.21.48-.48.49-2.13.04-4.27.08-6.4.11l-1.6.03h0ZM283.54,169.51h0,0ZM278.96,144.85c-.18,0-.35.04-.5.13-1.84.99-2.36,6.84-2.4,9.02l-.03,15.15,1.11-.02c1.97-.03,3.95-.06,5.93-.1v-11.92c-.41-10.29-2.57-11.69-3-11.86-.03-.01-.09-.04-.12-.06-.36-.23-.68-.34-.98-.34Z"/>
    </g>
    <g>
      <path class="cls-1" d="M267.8,169.83c1.52-.06,3.05-.1,4.57-.13v-13.16c-.59-12.37-4.08-12.89-4.27-12.99-5.61-2.94-5.91,9.7-5.91,9.7v16.81c1.87-.08,3.74-.15,5.61-.22Z"/>
      <path class="cls-2" d="M262.19,170.54c-.12,0-.25-.05-.34-.14-.09-.09-.15-.22-.15-.35v-16.81c0-.35.24-8.38,3.38-10.23.95-.56,2.04-.52,3.24.11,1.47.49,4.03,2.89,4.53,13.4v13.18c0,.26-.21.48-.47.49-1.52.03-3.04.07-4.56.13h0c-1.66.06-3.32.13-4.99.2l-.62.03h-.02ZM267.8,169.83h0,0ZM266.52,143.59c-.34,0-.65.09-.94.26-2.23,1.31-2.85,7.23-2.9,9.41v16.29h.12c1.66-.07,3.33-.14,4.99-.2,1.37-.05,2.74-.09,4.1-.12v-12.69c-.51-10.56-3.1-12.25-3.89-12.51-.02,0-.1-.04-.12-.05-.49-.26-.94-.39-1.36-.39Z"/>
    </g>
    <g>
      <path class="cls-1" d="M248.98,170.52c2.88-.07,5.75-.18,8.63-.29v-14.74c-.59-12.79-4.08-13.33-4.27-13.43-5.61-3.04-5.91,10.02-5.91,10.02v18.46c.52-.01,1.04-.01,1.55-.03Z"/>
      <path class="cls-2" d="M247.42,171.04c-.13,0-.25-.05-.34-.14-.09-.09-.15-.22-.15-.35v-18.46c0-.37.24-8.74,3.43-10.59.94-.55,2.02-.5,3.2.14,1.46.51,4.02,2.99,4.52,13.83v14.76c0,.26-.2.47-.47.48-2.88.11-5.76.22-8.64.29-.31,0-.61.01-.92.02h-.64s0,.01,0,.01ZM247.91,170.55h0,0ZM251.76,142.09c-.32,0-.62.08-.9.24-2.26,1.31-2.89,7.49-2.95,9.76v17.96h.15c.3,0,.61-.01.91-.02h0c2.72-.07,5.44-.17,8.16-.27v-14.27c-.51-10.93-3.11-12.68-3.89-12.95-.02,0-.1-.04-.13-.05-.49-.27-.94-.4-1.35-.4Z"/>
    </g>
    <g>
      <path class="cls-1" d="M242.03,170.62v-19.68s-.32-13.24-6.12-10.16c-.2.11-3.81.65-4.42,13.62v16.02c3.51.16,7.02.22,10.54.21Z"/>
      <path class="cls-2" d="M241.14,171.1c-3.38,0-6.56-.07-9.68-.21-.26-.01-.46-.22-.46-.48v-16.02c.52-11.01,3.16-13.53,4.69-14.06,1.22-.64,2.34-.69,3.31-.11,3.26,1.91,3.5,10.35,3.51,10.71v19.69c0,.27-.22.48-.48.49-.3,0-.59,0-.89,0ZM242.03,170.62h0,0ZM231.97,169.94c3.08.13,6.21.21,9.57.19v-19.2c-.05-2.28-.71-8.52-3.03-9.88-.67-.39-1.45-.35-2.38.14-.02.01-.1.04-.13.05-.81.28-3.51,2.05-4.04,13.16v15.53Z"/>
    </g>
    <g>
      <path class="cls-1" d="M294.37,169.02v-9.87c-.42-12.45-2.92-12.97-3.05-13.07-4.01-2.95-4.23,9.75-4.23,9.75v13.58c2.43-.07,4.86-.22,7.28-.4Z"/>
      <path class="cls-2" d="M287.09,169.91c-.13,0-.25-.05-.34-.14-.09-.09-.15-.22-.15-.35v-13.59c.02-.95.23-9.22,2.82-10.5.46-.23,1.22-.35,2.19.36,1.82.86,2.99,5.64,3.25,13.44v9.88c0,.25-.2.47-.45.48-2.84.21-5.16.34-7.31.41h-.02ZM294.37,169.02h0,0ZM290.18,146.12c-.17,0-.27.05-.33.08-1.55.77-2.22,6.32-2.28,9.64v13.08c1.88-.07,3.91-.18,6.31-.35v-9.42c-.37-10.94-2.35-12.42-2.74-12.61-.03-.01-.09-.05-.12-.07-.38-.28-.66-.35-.85-.35Z"/>
    </g>
    <g>
      <path class="cls-1" d="M302.38,168.36v-10.3c-.36-10.49-2.5-10.93-2.62-11.02-3.44-2.49-3.62,8.22-3.62,8.22v13.62c2.08-.17,4.16-.35,6.24-.53Z"/>
      <path class="cls-2" d="M296.14,169.37c-.12,0-.24-.05-.33-.13-.1-.09-.16-.22-.16-.36v-13.62c.01-.8.2-7.8,2.44-8.92.41-.21,1.09-.32,1.95.3,1.6.74,2.58,4.69,2.82,11.39v10.31c0,.25-.19.46-.44.48l-.81.07c-1.81.16-3.62.31-5.43.46-.01,0-.03,0-.04,0ZM302.38,168.36h0,0ZM298.79,147.16c-.13,0-.22.04-.26.06-1.29.65-1.85,5.29-1.9,8.06v13.08c1.63-.13,3.27-.27,4.9-.41l.37-.03v-9.85c-.32-9.18-1.97-10.41-2.3-10.56-.03-.01-.09-.05-.11-.06-.31-.22-.54-.28-.69-.28Z"/>
    </g>
    <g>
      <path class="cls-1" d="M310.31,167.63v-9.3c-.33-10.21-2.24-10.64-2.35-10.72-3.08-2.42-3.25,8-3.25,8v12.56c1.86-.15,3.73-.32,5.6-.54Z"/>
      <path class="cls-2" d="M304.71,168.65c-.12,0-.24-.05-.33-.13-.1-.09-.16-.22-.16-.36v-12.56c.02-1.29.23-7.75,2.27-8.72.38-.18,1-.27,1.76.33,1.43.71,2.32,4.56,2.53,11.09v9.32c0,.25-.18.45-.43.48-1.91.23-3.83.39-5.61.54-.01,0-.03,0-.04,0ZM307.09,147.72c-.09,0-.14.03-.17.04-1.11.53-1.67,4.91-1.72,7.85v12.03c1.49-.12,3.06-.26,4.63-.44v-8.87c-.29-9.12-1.87-10.18-2.05-10.28-.03-.01-.08-.05-.11-.07-.27-.21-.45-.26-.57-.26ZM310.31,167.63h0,0Z"/>
    </g>
    <g>
      <path class="cls-1" d="M312.98,166.94v-8.52c-.08-9.4-.52-9.8-.54-9.87-.71-2.23-.75,7.37-.75,7.37v11.5c.43-.14.86-.29,1.29-.47Z"/>
      <path class="cls-2" d="M311.68,167.89c-.1,0-.2-.03-.29-.09-.12-.09-.2-.24-.2-.39v-11.5c.03-8.04.52-8.12.95-8.18.49-.09.69.48.74.67.4.81.53,5.9.56,10.02v8.52c0,.19-.12.37-.29.45-.4.17-.82.33-1.34.49-.05.01-.1.02-.14.02ZM312.97,166.94h0,0ZM312.29,151.13c-.07,1.39-.11,3.14-.12,4.78v10.82c.11-.04.22-.08.32-.12v-8.19c-.03-3.6-.11-5.87-.2-7.29Z"/>
    </g>
  </g>
  <g>
    <g>
      <path class="cls-1" d="M267.33,81.91c-5.37-1.7-5.67,5.63-5.67,5.63l-.03,8.84c3.26.3,6.54.63,9.79.99v-7.92c-.57-7.18-3.91-7.48-4.09-7.54Z"/>
      <path class="cls-2" d="M271.42,97.85s-.04,0-.05,0c-3.12-.35-6.41-.68-9.78-.99-.25-.02-.44-.23-.44-.49l.03-8.84c0-.18.19-4.1,2.47-5.7,1.04-.73,2.32-.86,3.81-.39,1.19.25,3.93,1.51,4.45,7.97v7.95c0,.14-.06.27-.16.36-.09.08-.2.12-.32.12ZM262.12,95.93c3.03.28,5.99.58,8.82.89v-7.37c-.46-5.78-2.71-6.86-3.65-7.05-.02,0-.09-.02-.1-.02h0c-1.19-.38-2.2-.29-2.98.25-1.89,1.32-2.06,4.9-2.06,4.93l-.03,8.37Z"/>
    </g>
    <g>
      <path class="cls-1" d="M252.29,80.14c-6.86-1.64-7.24,5.42-7.24,5.42v9.51c4.04.27,8.22.58,12.46.94v-8.61c-.72-6.91-4.99-7.2-5.23-7.26Z"/>
      <path class="cls-2" d="M257.51,96.49s-.03,0-.04,0c-3.93-.33-8.12-.65-12.45-.94-.25-.02-.45-.23-.45-.48v-9.51c0-.16.21-3.41,2.51-5.13,1.36-1.02,3.15-1.28,5.32-.76,1.5.23,4.95,1.44,5.6,7.68v8.66c0,.14-.05.27-.15.36-.09.08-.21.13-.33.13ZM245.53,94.61c3.99.27,7.85.56,11.49.87v-8.08c-.58-5.53-3.51-6.57-4.75-6.77-.01,0-.09-.02-.11-.02h0c-1.87-.45-3.39-.25-4.52.59-1.94,1.44-2.12,4.35-2.12,4.38v9.03Z"/>
    </g>
    <g>
      <path class="cls-1" d="M235.42,77.82c-7.25-1.86-7.65,6.15-7.65,6.15v10.14c4.01.18,8.46.41,13.17.7v-8.75c-.76-7.85-5.27-8.18-5.52-8.24Z"/>
      <path class="cls-2" d="M240.95,95.29s-.02,0-.03,0c-4.26-.26-8.68-.5-13.16-.7-.26-.01-.46-.22-.46-.48v-10.14c0-.19.23-4,2.8-5.89,1.42-1.04,3.25-1.29,5.45-.73,1.58.26,5.21,1.62,5.89,8.66v8.8c0,.13-.05.26-.15.35-.09.09-.21.13-.33.13ZM228.26,93.64c4.15.19,8.24.41,12.2.65v-8.23c-.62-6.33-3.73-7.53-5.04-7.75-.01,0-.1-.02-.11-.02h0c-1.9-.49-3.46-.3-4.63.56-2.2,1.62-2.41,5.11-2.41,5.14v9.65Z"/>
    </g>
    <g>
      <path class="cls-1" d="M215.82,76.9c-.26.06-4.89.39-5.67,8.22v8.37c2.67.06,7.42.19,13.53.44v-10.89s-.41-7.99-7.85-6.13Z"/>
      <path class="cls-2" d="M223.67,94.41h-.02c-5.99-.24-10.66-.37-13.52-.44-.26,0-.47-.22-.47-.48v-8.37c.71-7.08,4.44-8.43,6.01-8.69l.15.47-.12-.47c2.29-.57,4.19-.31,5.66.77,2.57,1.91,2.79,5.65,2.8,5.81v10.92c0,.13-.05.26-.15.35-.09.09-.21.14-.34.14ZM210.63,93.49h0,0ZM210.63,93.01c2.81.07,7.12.19,12.56.41v-10.39s-.21-3.43-2.41-5.06c-1.22-.9-2.84-1.1-4.84-.61h0s-.1.02-.11.02c-1.35.22-4.56,1.41-5.19,7.78v7.84Z"/>
    </g>
    <g>
      <path class="cls-1" d="M280.14,85.31c-4.38-1.55-4.62,5.12-4.62,5.12v7.4c2.69.33,5.35.68,7.95,1.05v-6.72c-.46-6.53-3.19-6.81-3.34-6.86Z"/>
      <path class="cls-2" d="M283.48,99.38s-.05,0-.07,0c-2.5-.36-5.17-.72-7.94-1.05-.24-.03-.43-.24-.43-.48v-7.4c0-.18.16-3.95,2.2-5.34.85-.58,1.87-.66,3.05-.25.99.23,3.26,1.39,3.68,7.29v6.75c0,.14-.06.27-.17.37-.09.08-.2.12-.32.12ZM276.01,97.41c2.42.3,4.77.61,6.98.92v-6.16c-.38-5.38-2.33-6.24-2.92-6.38-.02,0-.08-.02-.1-.03-.89-.31-1.6-.27-2.19.13-1.63,1.11-1.78,4.52-1.78,4.55v6.96Z"/>
    </g>
    <g>
      <path class="cls-1" d="M292.02,89.24c-4.2-1.16-4.43,3.84-4.43,3.84v6.43c2.63.42,5.18.87,7.64,1.34v-6.47c-.44-4.9-3.06-5.1-3.2-5.14Z"/>
      <path class="cls-2" d="M295.22,101.34s-.06,0-.09,0c-2.42-.47-4.98-.92-7.62-1.34-.24-.04-.41-.24-.41-.48v-6.43c0-.13.14-2.69,1.8-3.9.86-.63,1.95-.76,3.23-.41.96.17,3.16,1.05,3.57,5.57v6.52c0,.14-.06.28-.17.37-.09.07-.2.11-.31.11ZM288.07,99.1c2.29.37,4.53.76,6.67,1.17v-5.89c-.35-3.82-2.05-4.53-2.76-4.65-.02,0-.07-.01-.09-.02-.99-.27-1.81-.19-2.42.26-1.28.93-1.4,3.11-1.4,3.13v6Z"/>
    </g>
    <g>
      <path class="cls-1" d="M302.88,92.44c-3.77-1.13-3.98,3.73-3.98,3.73v5.43c2.41.52,4.71,1.08,6.85,1.67v-5.84c-.4-4.77-2.74-4.96-2.87-5Z"/>
      <path class="cls-2" d="M305.75,103.77s-.09,0-.13-.02c-2.05-.57-4.34-1.13-6.82-1.67-.22-.05-.38-.25-.38-.47v-5.43c0-.13.13-2.74,1.73-3.88.77-.55,1.73-.66,2.85-.33.87.17,2.87,1.04,3.23,5.43v5.88c0,.15-.07.29-.19.39-.09.07-.19.1-.29.1ZM299.39,101.22c2.11.46,4.08.94,5.88,1.43v-5.2c-.32-3.81-1.95-4.42-2.44-4.52l.05-.48-.14.46c-.84-.25-1.5-.19-2.03.18-1.21.86-1.32,3.09-1.33,3.11v5.02Z"/>
    </g>
    <g>
      <path class="cls-1" d="M312.25,100.14c-.2-4.39-1.4-4.57-1.47-4.61-1.92-1.04-2.03,3.44-2.03,3.44v5.2c1.23.39,2.4.79,3.5,1.21v-5.24Z"/>
      <path class="cls-2" d="M312.25,105.87c-.06,0-.12-.01-.17-.03-1.06-.41-2.23-.81-3.47-1.2-.2-.06-.34-.25-.34-.46v-5.2c.01-.54.14-3.21,1.34-3.91.29-.17.77-.3,1.41.04.66.23,1.55,1.3,1.72,5.01,0,0,0,.02,0,.02v5.24c0,.16-.08.31-.21.4-.08.06-.18.09-.27.09ZM309.24,103.82c.88.28,1.73.57,2.53.87v-4.53c-.18-3.78-1.08-4.14-1.12-4.15-.02,0-.07-.03-.09-.04-.29-.16-.41-.09-.46-.06-.54.31-.83,2.02-.85,3.08v4.84Z"/>
    </g>
  </g>
  <g>
    <g>
      <path class="cls-1" d="M28.13,27.46v29.09c4.44-2.01,8.88-3.78,13.24-5.33v-30.02c-4.91,2.01-9.35,4.16-13.24,6.25Z"/>
      <path class="cls-2" d="M28.13,57.04c-.09,0-.18-.03-.26-.08-.14-.09-.22-.24-.22-.41v-29.1c0-.18.1-.34.25-.43,4.3-2.32,8.77-4.43,13.28-6.28.15-.06.32-.04.45.05.13.09.22.24.22.4v30.02c0,.21-.13.39-.32.46-4.56,1.62-9,3.41-13.2,5.32-.06.03-.13.04-.2.04ZM28.61,27.75v28.06c3.92-1.75,8.04-3.41,12.27-4.92v-28.95c-4.17,1.73-8.29,3.69-12.27,5.82Z"/>
    </g>
    <g>
      <path class="cls-1" d="M9.64,39.57l.46,26.7c5.2-3.33,10.58-6.24,15.98-8.77v-28.91c-10.43,5.85-16.43,10.98-16.43,10.98Z"/>
      <path class="cls-2" d="M10.1,66.76c-.08,0-.16-.02-.23-.06-.15-.08-.25-.24-.26-.42l-.46-26.7c0-.14.06-.28.17-.38.06-.05,6.16-5.23,16.51-11.04.15-.08.33-.08.48,0,.15.09.24.25.24.42v28.91c0,.19-.11.36-.28.44-5.65,2.66-11,5.6-15.92,8.74-.08.05-.17.08-.26.08ZM10.13,39.8l.44,25.61c4.67-2.94,9.72-5.7,15.02-8.21v-27.77c-8.87,5.05-14.43,9.52-15.46,10.37Z"/>
    </g>
    <g>
      <path class="cls-1" d="M92.49,10.59c-10.08-.48-19.58,1.84-28.3,3.63v30.41c16.35-3.72,28.07-4.37,28.07-4.37l.23-29.67Z"/>
      <path class="cls-2" d="M64.19,45.11c-.11,0-.22-.04-.3-.11-.12-.09-.18-.23-.18-.38V14.22c0-.23.16-.43.39-.48.99-.2,1.98-.41,2.99-.62,8.08-1.69,16.43-3.45,25.43-3.02.26.01.46.23.46.49l-.23,29.67c0,.26-.2.47-.46.48-.12,0-11.88.69-27.99,4.36-.04,0-.07.01-.11.01ZM64.68,14.62v29.4c14.13-3.17,24.82-4.05,27.11-4.22l.22-28.75c-8.7-.33-16.84,1.37-24.72,3.02-.88.18-1.74.37-2.61.54Z"/>
    </g>
    <g>
      <path class="cls-1" d="M43.42,20.39v30.12c6.56-2.25,12.9-4.02,18.72-5.4V14.66c-6.77,1.51-13.03,3.51-18.72,5.73Z"/>
      <path class="cls-2" d="M43.42,50.99c-.1,0-.2-.03-.28-.09-.13-.09-.2-.24-.2-.39v-30.12c0-.2.12-.38.31-.45,6.18-2.41,12.5-4.35,18.79-5.75.15-.03.29,0,.41.09.11.09.18.23.18.38v30.44c0,.22-.15.42-.37.47-6.41,1.53-12.69,3.34-18.67,5.39-.05.02-.1.03-.16.03ZM43.91,20.72v29.11c5.7-1.93,11.66-3.65,17.75-5.11V15.27c-5.94,1.36-11.9,3.19-17.75,5.45Z"/>
    </g>
  </g>
  <g>
    <path class="cls-1" d="M314.18,144.79c-.05,0-.11,0-.16-.01-31.39-5.23-84.47-5.8-85-5.81-.54,0-.97-.44-.96-.98,0-.53.44-.96.97-.96h0c.53,0,53.77.57,85.3,5.83.53.09.89.59.8,1.12-.08.47-.49.81-.96.81Z"/>
    <path class="cls-2" d="M314.18,145.27c-.08,0-.16,0-.24-.02-31-5.17-82.74-5.78-84.93-5.8-.8,0-1.45-.67-1.44-1.47,0-.79.66-1.44,1.46-1.44,2.21.02,54.16.63,85.39,5.84.38.06.72.27.95.59.23.32.31.7.25,1.08-.12.7-.72,1.22-1.43,1.22ZM229.03,137.51c-.27,0-.49.22-.49.48,0,.27.21.49.48.49,2.19.02,54,.63,85.08,5.81h.08c.24,0,.44-.16.48-.4.02-.13,0-.26-.08-.36-.07-.11-.19-.18-.31-.2-31.16-5.2-83.04-5.8-85.23-5.83Z"/>
  </g>
  <g>
    <path class="cls-1" d="M314.18,141.19c-.05,0-.11,0-.16-.01-31.39-5.23-84.47-5.8-85-5.81-.54,0-.97-.44-.96-.98,0-.53.44-.96.97-.96h0c.53,0,53.77.57,85.3,5.83.53.09.89.59.8,1.12-.08.47-.49.81-.96.81Z"/>
    <path class="cls-2" d="M314.18,141.68c-.08,0-.16,0-.24-.02-31-5.17-82.74-5.78-84.93-5.8-.8,0-1.45-.67-1.44-1.47,0-.79.66-1.44,1.46-1.44,2.21.02,54.16.63,85.39,5.84.38.06.72.27.95.59.23.32.31.7.25,1.08-.12.7-.72,1.22-1.43,1.22ZM229.03,133.92c-.27,0-.49.22-.49.48,0,.27.21.49.48.49,2.19.02,54,.63,85.08,5.81h.08c.24,0,.44-.16.48-.4.02-.13,0-.26-.08-.36-.07-.11-.19-.18-.31-.2-31.16-5.2-83.04-5.8-85.23-5.83Z"/>
  </g>
  <g>
    <rect class="cls-1" x="145.44" y="87.49" width="3.69" height="83.99"/>
    <path class="cls-2" d="M149.13,171.96h-3.69c-.27,0-.48-.22-.48-.49v-83.99c0-.27.22-.48.48-.48h3.69c.27,0,.49.22.49.48v83.99c0,.27-.22.49-.49.49ZM145.93,170.99h2.72v-83.02h-2.72v83.02Z"/>
  </g>
  <g>
    <rect class="cls-1" x="145.44" y="87.49" width="3.69" height="83.99"/>
    <path class="cls-2" d="M149.13,171.96h-3.69c-.27,0-.48-.22-.48-.49v-83.99c0-.27.22-.48.48-.48h3.69c.27,0,.49.22.49.48v83.99c0,.27-.22.49-.49.49ZM145.93,170.99h2.72v-83.02h-2.72v83.02Z"/>
  </g>
  <g>
    <rect class="cls-1" x="115.31" y="87.49" width="3.69" height="83.99"/>
    <path class="cls-2" d="M119,171.96h-3.69c-.27,0-.49-.22-.49-.49v-83.99c0-.27.22-.48.49-.48h3.69c.27,0,.49.22.49.48v83.99c0,.27-.22.49-.49.49ZM115.8,170.99h2.72v-83.02h-2.72v83.02Z"/>
  </g>
  <g>
    <rect class="cls-1" x="115.54" y="43.95" width="4.86" height="42.17"/>
    <path class="cls-2" d="M120.4,86.6h-4.86c-.27,0-.48-.22-.48-.48v-42.17c0-.27.22-.49.48-.49h4.86c.27,0,.48.22.48.49v42.17c0,.27-.22.48-.48.48ZM116.03,85.63h3.89v-41.2h-3.89v41.2Z"/>
  </g>
  <g>
    <rect class="cls-1" x="87.01" y="47.49" width="3.81" height="38.63"/>
    <path class="cls-2" d="M90.82,86.6h-3.81c-.27,0-.49-.22-.49-.48v-38.63c0-.27.22-.48.49-.48h3.81c.27,0,.49.22.49.48v38.63c0,.27-.22.48-.49.48ZM87.5,85.63h2.84v-37.66h-2.84v37.66Z"/>
  </g>
  <g>
    <rect class="cls-1" x="60.54" y="51.45" width="3.78" height="39.69"/>
    <path class="cls-2" d="M64.32,91.62h-3.78c-.27,0-.48-.22-.48-.49v-39.69c0-.27.22-.48.48-.48h3.78c.27,0,.49.22.49.48v39.69c0,.27-.22.49-.49.49ZM61.02,90.65h2.81v-38.72h-2.81v38.72Z"/>
  </g>
  <g>
    <rect class="cls-1" x="38.86" y="57.86" width="2.61" height="38.3"/>
    <path class="cls-2" d="M41.47,96.64h-2.61c-.27,0-.49-.22-.49-.48v-38.3c0-.27.22-.48.49-.48h2.61c.27,0,.49.22.49.48v38.3c0,.27-.22.48-.49.48ZM39.34,95.67h1.64v-37.33h-1.64v37.33Z"/>
  </g>
  <g>
    <rect class="cls-1" x="23.11" y="61.74" width="2.61" height="38.3"/>
    <path class="cls-2" d="M25.72,100.52h-2.61c-.27,0-.49-.22-.49-.48v-38.3c0-.27.22-.48.49-.48h2.61c.27,0,.49.22.49.48v38.3c0,.27-.22.48-.49.48ZM23.59,99.55h1.64v-37.33h-1.64v37.33Z"/>
  </g>
  <g>
    <rect class="cls-1" x="86.33" y="87.49" width="3.69" height="83.99"/>
    <path class="cls-2" d="M90.02,171.96h-3.69c-.27,0-.49-.22-.49-.49v-83.99c0-.27.22-.48.49-.48h3.69c.27,0,.49.22.49.48v83.99c0,.27-.22.49-.49.49ZM86.81,170.99h2.72v-83.02h-2.72v83.02Z"/>
  </g>
  <g>
    <rect class="cls-1" x="86.33" y="87.49" width="3.69" height="83.99"/>
    <path class="cls-2" d="M90.02,171.96h-3.69c-.27,0-.49-.22-.49-.49v-83.99c0-.27.22-.48.49-.48h3.69c.27,0,.49.22.49.48v83.99c0,.27-.22.49-.49.49ZM86.81,170.99h2.72v-83.02h-2.72v83.02Z"/>
  </g>
  <g>
    <rect class="cls-1" x="60.05" y="90.71" width="3.46" height="80.79"/>
    <path class="cls-2" d="M63.51,171.98h-3.46c-.27,0-.48-.22-.48-.49v-80.79c0-.27.22-.49.48-.49h3.46c.27,0,.49.22.49.49v80.79c0,.27-.22.49-.49.49ZM60.54,171.01h2.49v-79.82h-2.49v79.82Z"/>
  </g>
  <g>
    <rect class="cls-1" x="60.05" y="90.71" width="3.46" height="80.79"/>
    <path class="cls-2" d="M63.51,171.98h-3.46c-.27,0-.48-.22-.48-.49v-80.79c0-.27.22-.49.48-.49h3.46c.27,0,.49.22.49.49v80.79c0,.27-.22.49-.49.49ZM60.54,171.01h2.49v-79.82h-2.49v79.82Z"/>
  </g>
  <g>
    <rect class="cls-1" x="38.5" y="95.67" width="2.58" height="75.09"/>
    <path class="cls-2" d="M41.08,171.24h-2.58c-.27,0-.49-.22-.49-.49v-75.09c0-.27.22-.48.49-.48h2.58c.27,0,.48.22.48.48v75.09c0,.27-.22.49-.48.49ZM38.99,170.27h1.61v-74.12h-1.61v74.12Z"/>
  </g>
  <g>
    <rect class="cls-1" x="38.5" y="95.67" width="2.58" height="75.09"/>
    <path class="cls-2" d="M41.08,171.24h-2.58c-.27,0-.49-.22-.49-.49v-75.09c0-.27.22-.48.49-.48h2.58c.27,0,.48.22.48.48v75.09c0,.27-.22.49-.48.49ZM38.99,170.27h1.61v-74.12h-1.61v74.12Z"/>
  </g>
  <g>
    <rect class="cls-1" x="23.4" y="99.25" width="2.35" height="69.83"/>
    <path class="cls-2" d="M25.75,169.56h-2.35c-.27,0-.49-.22-.49-.49v-69.83c0-.27.22-.48.49-.48h2.35c.27,0,.49.22.49.48v69.83c0,.27-.22.49-.49.49ZM23.88,168.59h1.38v-68.86h-1.38v68.86Z"/>
  </g>
  <g>
    <rect class="cls-1" x="23.4" y="99.25" width="2.35" height="69.83"/>
    <path class="cls-2" d="M25.75,169.56h-2.35c-.27,0-.49-.22-.49-.49v-69.83c0-.27.22-.48.49-.48h2.35c.27,0,.49.22.49.48v69.83c0,.27-.22.49-.49.49ZM23.88,168.59h1.38v-68.86h-1.38v68.86Z"/>
  </g>
  <g>
    <rect class="cls-1" x="12.19" y="102.51" width="1.96" height="66.25"/>
    <path class="cls-2" d="M14.15,169.25h-1.96c-.27,0-.49-.22-.49-.49v-66.25c0-.27.22-.48.49-.48h1.96c.27,0,.49.22.49.48v66.25c0,.27-.22.49-.49.49ZM12.67,168.28h.99v-65.28h-.99v65.28Z"/>
  </g>
  <g>
    <rect class="cls-1" x="12.19" y="102.51" width="1.96" height="66.25"/>
    <path class="cls-2" d="M14.15,169.25h-1.96c-.27,0-.49-.22-.49-.49v-66.25c0-.27.22-.48.49-.48h1.96c.27,0,.49.22.49.48v66.25c0,.27-.22.49-.49.49ZM12.67,168.28h.99v-65.28h-.99v65.28Z"/>
  </g>
  <g>
    <rect class="cls-1" x="172.89" y="87.67" width="2.91" height="42.62"/>
    <path class="cls-2" d="M175.8,130.78h-2.91c-.27,0-.49-.22-.49-.48v-42.62c0-.27.22-.49.49-.49h2.91c.27,0,.49.22.49.49v42.62c0,.27-.22.48-.49.48ZM173.37,129.81h1.94v-41.65h-1.94v41.65Z"/>
  </g>
  <g>
    <rect class="cls-1" x="199.08" y="90.48" width="3.95" height="41.7"/>
    <path class="cls-2" d="M203.02,132.66h-3.95c-.27,0-.49-.22-.49-.48v-41.7c0-.27.22-.48.49-.48h3.95c.27,0,.49.22.49.48v41.7c0,.27-.22.48-.49.48ZM199.56,131.69h2.98v-40.73h-2.98v40.73Z"/>
  </g>
  <g>
    <g>
      <path class="cls-1" d="M180.08,172.23v-48.79l4.28.34s-1.88,16.09,2.23,22.42c4.11,6.33,9.07,11.3,9.41,14.89v10.78l-15.92.34Z"/>
      <path class="cls-2" d="M180.08,172.72c-.13,0-.25-.05-.34-.14-.09-.09-.15-.22-.15-.35v-48.79c0-.14.06-.26.16-.36.1-.09.23-.14.37-.13l4.28.34c.13.01.25.07.34.18.08.1.12.23.11.36-.02.16-1.82,15.99,2.15,22.1,1.4,2.17,2.94,4.21,4.3,6.02,2.77,3.68,4.95,6.59,5.19,9.09v10.83c0,.26-.21.48-.47.49l-15.92.34h-.01ZM180.56,123.97v47.76l14.95-.32v-10.31c-.21-2.18-2.43-5.13-5-8.55-1.37-1.82-2.92-3.88-4.34-6.08-3.79-5.85-2.64-19.42-2.35-22.25l-3.26-.26Z"/>
    </g>
    <g>
      <path class="cls-1" d="M177.51,172.23v-48.79l4.28.34s-1.88,16.09,2.23,22.42,9.07,11.3,9.41,14.89v10.78l-15.92.34Z"/>
      <path class="cls-2" d="M177.51,172.72c-.13,0-.25-.05-.34-.14-.09-.09-.15-.22-.15-.35v-48.79c0-.14.06-.26.16-.36.1-.09.24-.14.37-.13l4.28.34c.13.01.25.07.34.18.08.1.12.23.11.36-.02.16-1.82,15.99,2.15,22.1,1.4,2.17,2.94,4.21,4.3,6.02,2.77,3.68,4.95,6.59,5.19,9.09v10.83c0,.26-.21.48-.47.49l-15.92.34h-.01ZM177.99,123.97v47.76l14.95-.32v-10.31c-.21-2.18-2.43-5.13-5-8.55-1.37-1.82-2.92-3.88-4.34-6.08-3.79-5.85-2.64-19.42-2.35-22.25l-3.26-.26Z"/>
    </g>
  </g>
  <g>
    <path class="cls-1" d="M6.45,71.53s30.13-25.56,116.86-29.44l.23,5.48s-66.42-2.74-116.63,27.39l-.46-3.42Z"/>
    <path class="cls-2" d="M6.9,75.43c-.07,0-.14-.02-.21-.05-.15-.07-.25-.21-.27-.37l-.46-3.42c-.02-.16.04-.33.17-.43.08-.06,7.81-6.52,26.05-13.35,16.8-6.29,46.24-14.2,91.1-16.21.13-.02.25.04.35.13.09.09.15.21.16.34l.23,5.48c0,.14-.05.27-.14.36-.1.1-.22.13-.36.14-.66-.03-66.85-2.39-116.36,27.32-.08.05-.16.07-.25.07ZM6.96,71.73l.32,2.42c47.33-28.06,109.37-27.26,115.74-27.09l-.19-4.47c-44.42,2.03-73.58,9.87-90.24,16.1-16.5,6.16-24.31,12-25.63,13.05Z"/>
  </g>
  <g>
    <path class="cls-1" d="M5.31,104.85v4.11s51.81-29.21,198.79-16.43v-5.71C57.12,74.04,5.31,104.85,5.31,104.85Z"/>
    <path class="cls-2" d="M5.31,109.44c-.08,0-.17-.02-.24-.07-.15-.09-.24-.25-.24-.42v-4.11c0-.17.09-.33.24-.42.13-.08,13.38-7.82,44.43-13.87,28.61-5.58,78.67-10.84,154.65-4.23.25.02.44.23.44.48v5.71c0,.14-.06.27-.16.36s-.24.14-.37.13C58.91,80.38,6.06,109.09,5.54,109.38c-.07.04-.16.06-.24.06ZM5.79,105.13v3.03c3.14-1.57,16.69-7.77,43.71-12.69,28.54-5.2,78.43-10.02,154.12-3.47v-4.73C63.82,75.17,9.78,102.94,5.79,105.13Z"/>
  </g>
</svg>