<?xml version="1.0" encoding="UTF-8"?>
<svg id="Layer_1" xmlns="http://www.w3.org/2000/svg" version="1.1" xmlns:xlink="http://www.w3.org/1999/xlink" viewBox="0 0 600 600">
  <!-- Generator: Adobe Illustrator 30.3.0, SVG Export Plug-In . SVG Version: 2.1.3 Build 182)  -->
  <defs>
    <style>
      .st0 {
        fill: #434142;
      }

      .st1 {
        fill: none;
        stroke: #000;
        stroke-linecap: round;
        stroke-linejoin: round;
      }
    </style>
  </defs>
  <g id="SPLINE">
    <path class="st1" d="M275.1,348.6c4.6,4.2,9.5,8.2,14.5,12,19.3,1.1,38.6,3.7,57.8,6.2-1.1-1.8-2.3-3.5-3.5-5-22.5-6.2-45.2-11.4-68.8-13.2Z"/>
  </g>
  <g id="HATCH">
    <path class="st0" d="M275.1,348.6c4.6,4.2,9.5,8.2,14.5,12,19.3,1.1,38.6,3.7,57.8,6.2-1.1-1.8-2.3-3.5-3.5-5-22.5-6.2-45.2-11.4-68.8-13.2Z"/>
  </g>
  <g id="SPLINE1" data-name="SPLINE">
    <path class="st1" d="M295.7,390.1c-4.6-3.2-9.2-6.4-13.8-9.5-13.6,4.4-20.9,14.6-19.8,28.7,1.3,17.8,7.5,35.4,9.8,53.2,3.2,24.3-1.4,27.7-32.5,28.2-6.7.1-13.5.1-20.2-.2-6.6-.3-13.2-1-20.6,3,22.4,2.1,44.7,5,67.1,5.9,19.8.9,27.4-8.6,23.9-23.4-3.1-13.1-8-26-11.2-39.1-5.9-23.7,0-39.4,17.3-46.9Z"/>
  </g>
  <g id="HATCH1" data-name="HATCH">
    <path class="st0" d="M295.7,390.1c-4.6-3.2-9.2-6.4-13.8-9.5-13.6,4.4-20.9,14.6-19.8,28.7,1.3,17.8,7.5,35.4,9.8,53.2,3.2,24.3-1.4,27.7-32.5,28.2-6.7.1-13.5.1-20.2-.2-6.6-.3-13.2-1-20.6,3,22.4,2.1,44.7,5,67.1,5.9,19.8.9,27.4-8.6,23.9-23.4-3.1-13.1-8-26-11.2-39.1-5.9-23.7,0-39.4,17.3-46.9Z"/>
  </g>
  <g id="SPLINE2" data-name="SPLINE">
    <path class="st1" d="M337,385.3c8,.5,16,1.4,24,2.2-1.2-1.8-2.4-3.6-3.6-5.3-13.2-1.2-26.4-2.6-39.6-3.4,3.8,2.1,7.8,4.2,11.8,6.2,2.4,0,4.9.1,7.4.3Z"/>
  </g>
  <g id="HATCH2" data-name="HATCH">
    <path class="st0" d="M337,385.3c8,.5,16,1.4,24,2.2-1.2-1.8-2.4-3.6-3.6-5.3-13.2-1.2-26.4-2.6-39.6-3.4,3.8,2.1,7.8,4.2,11.8,6.2,2.4,0,4.9.1,7.4.3Z"/>
  </g>
  <g id="SPLINE3" data-name="SPLINE">
    <path class="st1" d="M330.9,411c-4.2-2.4-8.5-4.7-12.8-6.9-14.4,4.8-19.3,15.6-16.5,33.8,2,13.2,7.4,26,11.7,38.9.5,1.6,1,3.1,1.4,4.6,2.7-1.4,5.5-2.8,8.3-4.2-4.4-12.1-8.6-24.2-10.1-36.5-1.8-14.5,4.8-24.7,18-29.7Z"/>
  </g>
  <g id="HATCH3" data-name="HATCH">
    <path class="st0" d="M330.9,411c-4.2-2.4-8.5-4.7-12.8-6.9-14.4,4.8-19.3,15.6-16.5,33.8,2,13.2,7.4,26,11.7,38.9.5,1.6,1,3.1,1.4,4.6,2.7-1.4,5.5-2.8,8.3-4.2-4.4-12.1-8.6-24.2-10.1-36.5-1.8-14.5,4.8-24.7,18-29.7Z"/>
  </g>
  <g id="SPLINE4" data-name="SPLINE">
    <path class="st1" d="M351.9,424.7c-15.9,5.5-20.5,17.9-14.8,38.2.6,2.1,1.3,4.2,2,6.3,2.5-1.3,5-2.5,7.5-3.8-3.9-16.8.9-27.5,15.5-33-.3-.2-.6-.3-.9-.5-3-2.5-6.1-4.8-9.2-7.1Z"/>
  </g>
  <g id="HATCH4" data-name="HATCH">
    <path class="st0" d="M351.9,424.7c-15.9,5.5-20.5,17.9-14.8,38.2.6,2.1,1.3,4.2,2,6.3,2.5-1.3,5-2.5,7.5-3.8-3.9-16.8.9-27.5,15.5-33-.3-.2-.6-.3-.9-.5-3-2.5-6.1-4.8-9.2-7.1Z"/>
  </g>
  <g id="SPLINE5" data-name="SPLINE">
    <path class="st1" d="M83.5,469.2c16.4,6.1,34.7,9,52.2,13.3.7-1.8,1.4-3.6,2-5.3-7.6-2.5-15.4-4.7-22.8-7.5-25.3-9.7-28.4-19.6-24.8-42,2.9-18.5,4.9-40-4.1-56.2-6.8-12.2-14.7-24.1-23.2-35.8-1.6,1.4-3.3,2.8-5.4,3.2v1.6c5.3,7.3,10.5,14.7,15.5,22.1,15,22.1,15.8,44.1-3.6,66.2-15.6,17.8-10.6,31,14.1,40.3Z"/>
  </g>
  <g id="HATCH5" data-name="HATCH">
    <path class="st0" d="M83.5,469.2c16.4,6.1,34.7,9,52.2,13.3.7-1.8,1.4-3.6,2-5.3-7.6-2.5-15.4-4.7-22.8-7.5-25.3-9.7-28.4-19.6-24.8-42,2.9-18.5,4.9-40-4.1-56.2-6.8-12.2-14.7-24.1-23.2-35.8-1.6,1.4-3.3,2.8-5.4,3.2v1.6c5.3,7.3,10.5,14.7,15.5,22.1,15,22.1,15.8,44.1-3.6,66.2-15.6,17.8-10.6,31,14.1,40.3Z"/>
  </g>
  <g id="SPLINE6" data-name="SPLINE">
    <path class="st1" d="M57.4,484.4v16.1c35.2-.4,70.5,0,105.9-2-34.3-4.3-69.1-6.9-102.8-13.3-1.1-.2-2.1-.5-3.1-.7Z"/>
  </g>
  <g id="HATCH6" data-name="HATCH">
    <path class="st0" d="M57.4,484.4v16.1c35.2-.4,70.5,0,105.9-2-34.3-4.3-69.1-6.9-102.8-13.3-1.1-.2-2.1-.5-3.1-.7Z"/>
  </g>
  <g id="SPLINE7" data-name="SPLINE">
    <path class="st1" d="M403.5,175.3c.9-5.7-1.2-7.6-6.3-7.5-11.5.2-22.8-1.1-34.2-3-2.8-.5-6.1-1.4-8.1,1.8-6.2,9.9-11.2,20.9-12.6,32.3-.8,6.8,5.2,11.8,10.6,16.2,1.4,1.1,3.2,3.2,4.3,4.6,12.9,15.7,21.7,33.9,31,52.6,5.1-32.4,10-64.8,15.3-97.1Z"/>
  </g>
  <g id="HATCH7" data-name="HATCH">
    <path class="st0" d="M403.5,175.3c.9-5.7-1.2-7.6-6.3-7.5-11.5.2-22.8-1.1-34.2-3-2.8-.5-6.1-1.4-8.1,1.8-6.2,9.9-11.2,20.9-12.6,32.3-.8,6.8,5.2,11.8,10.6,16.2,1.4,1.1,3.2,3.2,4.3,4.6,12.9,15.7,21.7,33.9,31,52.6,5.1-32.4,10-64.8,15.3-97.1Z"/>
  </g>
  <g id="SPLINE8" data-name="SPLINE">
    <path class="st1" d="M312.9,179.3c9.2,2.9,14.8-.2,21.7-10.7,3.8-5.7,4.5-9.4-5.1-11.1-7.4-1.3-15.1-3-21.4-6.2-7-3.5-13.5-4.6-19.8-3.8-5.6.7-10.9,2.7-16.4,5.7-1.6.9-3.2,1.9-4.9,2.9,3.3,1.7,6.6,3.4,9.9,5.1,9.2,4.7,18.1,9.2,26.8,14,3.5,1.9,6.5,3.3,9.2,4.2Z"/>
  </g>
  <g id="HATCH8" data-name="HATCH">
    <path class="st0" d="M312.9,179.3c9.2,2.9,14.8-.2,21.7-10.7,3.8-5.7,4.5-9.4-5.1-11.1-7.4-1.3-15.1-3-21.4-6.2-7-3.5-13.5-4.6-19.8-3.8-5.6.7-10.9,2.7-16.4,5.7-1.6.9-3.2,1.9-4.9,2.9,3.3,1.7,6.6,3.4,9.9,5.1,9.2,4.7,18.1,9.2,26.8,14,3.5,1.9,6.5,3.3,9.2,4.2Z"/>
  </g>
  <g id="SPLINE9" data-name="SPLINE">
    <path class="st1" d="M195,217.7c.9-.6,1.9-1.2,2.8-1.7-1.6-6.3-2.2-12.6-2.4-19.1-.1-3.9-.2-7.8-.2-11.9,0-2.9,0-5.8-.1-8.7-3.6,3.6-6.7,6.7-9.7,9.7-2.3,2.3-4.5,4.5-6.7,6.6-1.9,1.9-3.6,4-1.7,6.4,0,.1.2.2.3.4,5.8,6.3,11.8,12.3,17.8,18.5Z"/>
  </g>
  <g id="HATCH9" data-name="HATCH">
    <path class="st0" d="M195,217.7c.9-.6,1.9-1.2,2.8-1.7-1.6-6.3-2.2-12.6-2.4-19.1-.1-3.9-.2-7.8-.2-11.9,0-2.9,0-5.8-.1-8.7-3.6,3.6-6.7,6.7-9.7,9.7-2.3,2.3-4.5,4.5-6.7,6.6-1.9,1.9-3.6,4-1.7,6.4,0,.1.2.2.3.4,5.8,6.3,11.8,12.3,17.8,18.5Z"/>
  </g>
  <g id="SPLINE10" data-name="SPLINE">
    <path class="st1" d="M471,213.5c-.2-3.9,1.4-8.4-4-10.5-16.1-6.5-31.1-15.4-47.3-24.9-3,19-9.7,56.3-12.7,75.6,9.5-9.3,21.9-36.7,29.9-44.9,4.1-4.2,10.7-6.4,16.3-1.6,5.9,5.1.6,8.1-3.9,13-10,11-19.6,22.6-30.1,33.1-9.4,9.4-14.1,20-16.8,33.3-1.8,8.8-2.6,17.5-2.8,26.3h45.8c16.9-30.7,27.2-63.3,25.6-99.3Z"/>
  </g>
  <g id="HATCH10" data-name="HATCH">
    <path class="st0" d="M471,213.5c-.2-3.9,1.4-8.4-4-10.5-16.1-6.5-31.1-15.4-47.3-24.9-3,19-9.7,56.3-12.7,75.6,9.5-9.3,21.9-36.7,29.9-44.9,4.1-4.2,10.7-6.4,16.3-1.6,5.9,5.1.6,8.1-3.9,13-10,11-19.6,22.6-30.1,33.1-9.4,9.4-14.1,20-16.8,33.3-1.8,8.8-2.6,17.5-2.8,26.3h45.8c16.9-30.7,27.2-63.3,25.6-99.3Z"/>
  </g>
  <g id="SPLINE11" data-name="SPLINE">
    <path class="st1" d="M312.9,277.9c0,3.7,9,19.9,11.3,23.3,2.5,3.8,5.1,7.7,7.6,11.6h48c-5.8-30.8-17.4-59.5-38.5-85.3-7-8.6-14.6-16.3-22.5-23.4-8.3-7.4-17-14-26.1-20-11.3-7.3-23.1-13.6-35.4-19.2-6.7-3-13.5-5.8-20.4-8.3-5.6-2.1-11.3-4-17-5.8-4.6-1.5-6.5-.4-7,4.9-1,9-1.4,17.9-1.4,26.8,0,4.1,0,8.2.2,12.3.3,7.6.9,15.2,1.8,22.7.6,5.6,1.4,11.2,2.4,16.8.8,4.5,1.6,9.1,2.5,13.6,4.2,20,10.7,37.8,19.3,53.5,1.1,2,2.2,4,3.4,5.9.6.9,1.1,1.8,1.7,2.7.6.9,1.1,1.8,1.7,2.7,0,0,0,0,0,0h0c6,5.1,11.6,11.7,19.3,14.7,24.5,9.5,52,7.3,78,11-9.4-2.2-18.7-4.4-28.2-6.5-10.6-2.3-16.5-6-12.5-12,1-1.6,8.7-6.3,10.3-7.1h0s0,0,0,0c-18.3-28.2-36.6-56.4-55-84.5-2.6-4-5.2-8-7.9-12.1-.5-.8-1.1-1.7-1.6-2.5-1.8-3-2.7-5.9,1.1-8.9,4.8-3.7,9.4-3.4,13.7,1.3,1.1,1.1,2,2.3,2.9,3.6,3,4.2,5.2,8.9,8.1,13.2.7,1,1.4,2,2,3.1,9.8,15,19.7,29.8,29.6,44.7,2-12.7,2.4-24.3,1.9-36-.4-7.9,4.2-10.2,10.1-10.2,6.3,0,5.9,5.5,5.9,10.1,0,18.6-9.3,24.7-9.2,43.3Z"/>
  </g>
  <g id="HATCH11" data-name="HATCH">
    <path class="st0" d="M312.9,277.9c0,3.7,9,19.9,11.3,23.3,2.5,3.8,5.1,7.7,7.6,11.6h48c-5.8-30.8-17.4-59.5-38.5-85.3-7-8.6-14.6-16.3-22.5-23.4-8.3-7.4-17-14-26.1-20-11.3-7.3-23.1-13.6-35.4-19.2-6.7-3-13.5-5.8-20.4-8.3-5.6-2.1-11.3-4-17-5.8-4.6-1.5-6.5-.4-7,4.9-1,9-1.4,17.9-1.4,26.8,0,4.1,0,8.2.2,12.3.3,7.6.9,15.2,1.8,22.7.6,5.6,1.4,11.2,2.4,16.8.8,4.5,1.6,9.1,2.5,13.6,4.2,20,10.7,37.8,19.3,53.5,1.1,2,2.2,4,3.4,5.9.6.9,1.1,1.8,1.7,2.7.6.9,1.1,1.8,1.7,2.7,0,0,0,0,0,0h0c6,5.1,11.6,11.7,19.3,14.7,24.5,9.5,52,7.3,78,11-9.4-2.2-18.7-4.4-28.2-6.5-10.6-2.3-16.5-6-12.5-12,1-1.6,8.7-6.3,10.3-7.1h0s0,0,0,0c-18.3-28.2-36.6-56.4-55-84.5-2.6-4-5.2-8-7.9-12.1-.5-.8-1.1-1.7-1.6-2.5-1.8-3-2.7-5.9,1.1-8.9,4.8-3.7,9.4-3.4,13.7,1.3,1.1,1.1,2,2.3,2.9,3.6,3,4.2,5.2,8.9,8.1,13.2.7,1,1.4,2,2,3.1,9.8,15,19.7,29.8,29.6,44.7,2-12.7,2.4-24.3,1.9-36-.4-7.9,4.2-10.2,10.1-10.2,6.3,0,5.9,5.5,5.9,10.1,0,18.6-9.3,24.7-9.2,43.3Z"/>
  </g>
  <g id="SPLINE12" data-name="SPLINE">
    <path class="st1" d="M562.5,321.8h-231.1c-2.1,0-3.8,1.7-3.8,3.8s1.7,3.8,3.8,3.8h231.1c2.1,0,3.8-1.7,3.8-3.8s-1.7-3.8-3.8-3.8Z"/>
  </g>
  <g id="HATCH12" data-name="HATCH">
    <path class="st0" d="M562.5,321.8h-231.1c-2.1,0-3.8,1.7-3.8,3.8s1.7,3.8,3.8,3.8h231.1c2.1,0,3.8-1.7,3.8-3.8s-1.7-3.8-3.8-3.8Z"/>
  </g>
  <g id="SPLINE13" data-name="SPLINE">
    <path class="st1" d="M562.5,337.3h-194.9c-2.1,0-3.8,1.7-3.8,3.8s1.7,3.8,3.8,3.8h194.9c2.1,0,3.8-1.7,3.8-3.8s-1.7-3.8-3.8-3.8Z"/>
  </g>
  <g id="HATCH13" data-name="HATCH">
    <path class="st0" d="M562.5,337.3h-194.9c-2.1,0-3.8,1.7-3.8,3.8s1.7,3.8,3.8,3.8h194.9c2.1,0,3.8-1.7,3.8-3.8s-1.7-3.8-3.8-3.8Z"/>
  </g>
  <g id="SPLINE14" data-name="SPLINE">
    <path class="st1" d="M437.5,393.9v-21.4c-9.7.4-17.5,1.9-23.5,4.4-6.9,2.9-12.1,7.1-15.6,12.3-3.5,5.3-5.3,10.8-5.3,16.7,0,9,3.4,16.4,10.3,22.2,6.7,5.7,18,10.4,33.8,13.9.1,0,.2,0,.3,0v-31.2c-4.2-1-7-2.1-8.3-3.3-1.7-1.5-2.6-3.1-2.6-5s1.1-4.6,3.2-6.4c1.8-1.5,4.4-2.3,7.7-2.5Z"/>
  </g>
  <g id="HATCH14" data-name="HATCH">
    <path class="st0" d="M437.5,393.9v-21.4c-9.7.4-17.5,1.9-23.5,4.4-6.9,2.9-12.1,7.1-15.6,12.3-3.5,5.3-5.3,10.8-5.3,16.7,0,9,3.4,16.4,10.3,22.2,6.7,5.7,18,10.4,33.8,13.9.1,0,.2,0,.3,0v-31.2c-4.2-1-7-2.1-8.3-3.3-1.7-1.5-2.6-3.1-2.6-5s1.1-4.6,3.2-6.4c1.8-1.5,4.4-2.3,7.7-2.5Z"/>
  </g>
  <g id="SPLINE15" data-name="SPLINE">
    <path class="st1" d="M562.5,353.9h-166.3c-2.1,0-3.8,1.7-3.8,3.8s1.7,3.8,3.8,3.8h162.5v118.8c0,.3.1.6.2.8h-5.4c0-.3-.1-.6-.2-.9l-30.9-91c-1-2.9-2.8-5.4-5.2-7.4l-11.2,37.3,11.9,39.4,7.4,22.6h-45.1c2.6-2,4.9-4.2,6.9-6.8.7-.4,1.5-.7,2.2-.9,1.4-.5,2.9-.7,4.4-.7h14.3c1.8,0,3.4.3,5,.9l-7.9-26.2c-1.1.5-2.3.8-3.7.8h-.7c-.1,0-.2,0-.4,0,0,0-.1,0-.2,0-4.1,0-7.4-2.4-9-3.7-.4-.3-.7-.6-1-.9,0,0,0,0,0,0h0c-1-1.3-1.5-3.1-.9-4.8l12.3-40.7,6.4-21.3c-.6-.2-1.2-.2-1.7-.2h-12.9c-2.9,0-5.9,1.1-8.7,3.4-1.4,1-2.5,2.2-3.5,3.5,0,0,0,.1-.1.2-1.1-1.1-2.3-2.1-3.6-3-7.2-5-17.3-7.7-30.4-8.1v22.4c1.8.6,3.4,1.4,4.6,2.4,1.6,1.3,2.9,3,3.9,5.1.8,1.7,2.5,3.1,5.1,4.1,2.7,1.2,5.7,1.6,9,1.4h2.4c0-.1-3.8,11.1-3.8,11.1-5.5-2-12.6-3.9-21.1-5.8v31.4c4.4,1.4,7.5,2.8,9.1,4.3,2.7,2.3,4,5,4,8s-1.4,5.9-4.1,8.3c-2.2,1.9-5.2,3-9,3.4v12.7h-4.4s0,0-.1,0,0,0-.1,0h-.2s0,0,0,0c-2.3-.2-4.2-2.1-4.2-4.5v-8.8c-4-1-7.3-3.1-9.9-6.2-1.3-1.6-2.3-3.5-3.1-5.9-.6-1.8-2.2-3.3-4.7-4.4-2.6-1.2-5.6-1.6-8.9-1.4l-10.1.6c-3.4.2-6.1,1.6-8.2,4.1-2.1,2.6-2.6,5.4-1.5,8.5,2.1,6.4,5.6,12.1,10.5,16.9.5.5,1,.9,1.6,1.3h-23.3v17.7h186.3v-17.7h-.2c0-.3.2-.5.2-.8v-120.7c0-.3-.1-.6-.2-.9,0-.3.2-.6.2-.9,0-2.1-1.7-3.8-3.8-3.8Z"/>
  </g>
  <g id="HATCH15" data-name="HATCH">
    <path class="st0" d="M562.5,353.9h-166.3c-2.1,0-3.8,1.7-3.8,3.8s1.7,3.8,3.8,3.8h162.5v118.8c0,.3.1.6.2.8h-5.4c0-.3-.1-.6-.2-.9l-30.9-91c-1-2.9-2.8-5.4-5.2-7.4l-11.2,37.3,11.9,39.4,7.4,22.6h-45.1c2.6-2,4.9-4.2,6.9-6.8.7-.4,1.5-.7,2.2-.9,1.4-.5,2.9-.7,4.4-.7h14.3c1.8,0,3.4.3,5,.9l-7.9-26.2c-1.1.5-2.3.8-3.7.8h-.7c-.1,0-.2,0-.4,0,0,0-.1,0-.2,0-4.1,0-7.4-2.4-9-3.7-.4-.3-.7-.6-1-.9,0,0,0,0,0,0h0c-1-1.3-1.5-3.1-.9-4.8l12.3-40.7,6.4-21.3c-.6-.2-1.2-.2-1.7-.2h-12.9c-2.9,0-5.9,1.1-8.7,3.4-1.4,1-2.5,2.2-3.5,3.5,0,0,0,.1-.1.2-1.1-1.1-2.3-2.1-3.6-3-7.2-5-17.3-7.7-30.4-8.1v22.4c1.8.6,3.4,1.4,4.6,2.4,1.6,1.3,2.9,3,3.9,5.1.8,1.7,2.5,3.1,5.1,4.1,2.7,1.2,5.7,1.6,9,1.4h2.4c0-.1-3.8,11.1-3.8,11.1-5.5-2-12.6-3.9-21.1-5.8v31.4c4.4,1.4,7.5,2.8,9.1,4.3,2.7,2.3,4,5,4,8s-1.4,5.9-4.1,8.3c-2.2,1.9-5.2,3-9,3.4v12.7h-4.4s0,0-.1,0,0,0-.1,0h-.2s0,0,0,0c-2.3-.2-4.2-2.1-4.2-4.5v-8.8c-4-1-7.3-3.1-9.9-6.2-1.3-1.6-2.3-3.5-3.1-5.9-.6-1.8-2.2-3.3-4.7-4.4-2.6-1.2-5.6-1.6-8.9-1.4l-10.1.6c-3.4.2-6.1,1.6-8.2,4.1-2.1,2.6-2.6,5.4-1.5,8.5,2.1,6.4,5.6,12.1,10.5,16.9.5.5,1,.9,1.6,1.3h-23.3v17.7h186.3v-17.7h-.2c0-.3.2-.5.2-.8v-120.7c0-.3-.1-.6-.2-.9,0-.3.2-.6.2-.9,0-2.1-1.7-3.8-3.8-3.8Z"/>
  </g>
  <g id="SPLINE16" data-name="SPLINE">
    <path class="st1" d="M396.6,21.3c6.7-4.4,13.1-9.3,19.1-14.5h-26.4c1.2,6.6,3.4,11.3,7.3,14.5Z"/>
  </g>
  <g id="HATCH16" data-name="HATCH">
    <path class="st0" d="M396.6,21.3c6.7-4.4,13.1-9.3,19.1-14.5h-26.4c1.2,6.6,3.4,11.3,7.3,14.5Z"/>
  </g>
  <g id="SPLINE17" data-name="SPLINE">
    <path class="st1" d="M565.9,312.8v-53.8c-2-.1-12.5-.8-23.2,0h0c-36.6,3.2-62.7,22.1-80.6,53.9h103.8Z"/>
  </g>
  <g id="HATCH17" data-name="HATCH">
    <path class="st0" d="M565.9,312.8v-53.8c-2-.1-12.5-.8-23.2,0h0c-36.6,3.2-62.7,22.1-80.6,53.9h103.8Z"/>
  </g>
  <g id="SPLINE18" data-name="SPLINE">
    <path class="st1" d="M70,234.1c21.4-7.7,41.6-17.5,59.9-30.6,6.6-4.7,12.9-9.9,19-15.5,5.5-5.1,10.8-10.6,15.9-16.6.7-.9,1.4-1.7,2.1-2.6,11.1-13.6,19.8-28,26.4-43.1,3.6-8.2,6.7-16.7,9.2-25.3.7-2.4,1.4-4.8,2-7.2,2.4-9.4,4.3-18.9,5.6-28.6.3-2.1.5-4.2.8-6.3,1.3-10.8,2-21.7,2.3-32.8.6-6.3,1.1-12.5,1.4-18.8H52.4v233.1h0c5.9-1.8,11.8-3.7,17.6-5.7Z"/>
  </g>
  <g id="HATCH18" data-name="HATCH">
    <path class="st0" d="M70,234.1c21.4-7.7,41.6-17.5,59.9-30.6,6.6-4.7,12.9-9.9,19-15.5,5.5-5.1,10.8-10.6,15.9-16.6.7-.9,1.4-1.7,2.1-2.6,11.1-13.6,19.8-28,26.4-43.1,3.6-8.2,6.7-16.7,9.2-25.3.7-2.4,1.4-4.8,2-7.2,2.4-9.4,4.3-18.9,5.6-28.6.3-2.1.5-4.2.8-6.3,1.3-10.8,2-21.7,2.3-32.8.6-6.3,1.1-12.5,1.4-18.8H52.4v233.1h0c5.9-1.8,11.8-3.7,17.6-5.7Z"/>
  </g>
  <g id="SPLINE19" data-name="SPLINE">
    <path class="st1" d="M98.9,296.8c11-4.8,22.3-9,34.6-12-6.6-11.2-13.2-21.2-18.5-31.9-5.2-10.4-10.6-14-22.1-8-7.1,3.8-10.9,6.7-10.8,15.1,0,.4,0,.8,0,1.3.4,7.7.8,15.5.2,23.3l-24.9-18.3v51.6s36.3-18.5,41.6-21.1h0Z"/>
  </g>
  <g id="HATCH19" data-name="HATCH">
    <path class="st0" d="M98.9,296.8c11-4.8,22.3-9,34.6-12-6.6-11.2-13.2-21.2-18.5-31.9-5.2-10.4-10.6-14-22.1-8-7.1,3.8-10.9,6.7-10.8,15.1,0,.4,0,.8,0,1.3.4,7.7.8,15.5.2,23.3l-24.9-18.3v51.6s36.3-18.5,41.6-21.1h0Z"/>
  </g>
  <g id="SPLINE20" data-name="SPLINE">
    <path class="st1" d="M264.2,134.3l-32.2-38.7s-1.9,15.7-3.5,20.8c-1.5,5-8.8,18.9-8.8,18.9,0,0,12.6-.8,18.1-.8,4.7,0,24.7,4.3,26.4,0Z"/>
  </g>
  <g id="HATCH20" data-name="HATCH">
    <path class="st0" d="M264.2,134.3l-32.2-38.7s-1.9,15.7-3.5,20.8c-1.5,5-8.8,18.9-8.8,18.9,0,0,12.6-.8,18.1-.8,4.7,0,24.7,4.3,26.4,0Z"/>
  </g>
  <g id="SPLINE21" data-name="SPLINE">
    <path class="st1" d="M124.7,231.3c-1.9,1.7-1.7,3.4,0,6.3,3.7,6.1,7.4,12.2,11,18.3,3.2,5.5,6.4,10.9,9.7,16.4h0s5.3,10.5,5.3,10.5c0,0,29.8-1.2,46.6-.2,1.9.3,3.7.6,5.3.4,2.2-.2,3.9-1.1,4.9-3.4,2.6-6-4.2-15.1-7.9-22.5-2.3-4.7-5.1-9.1-8.2-13.3-5.1-7.1-10.8-13.7-16.3-20.5-2.6-3.3-5.1-6.6-7.5-10-1.8-2.6-4.4-6.3-8.3-4.3l.5,21.4.5,23.1-18-11.2-17.7-10.9Z"/>
  </g>
  <g id="HATCH21" data-name="HATCH">
    <path class="st0" d="M124.7,231.3c-1.9,1.7-1.7,3.4,0,6.3,3.7,6.1,7.4,12.2,11,18.3,3.2,5.5,6.4,10.9,9.7,16.4h0s5.3,10.5,5.3,10.5c0,0,29.8-1.2,46.6-.2,1.9.3,3.7.6,5.3.4,2.2-.2,3.9-1.1,4.9-3.4,2.6-6-4.2-15.1-7.9-22.5-2.3-4.7-5.1-9.1-8.2-13.3-5.1-7.1-10.8-13.7-16.3-20.5-2.6-3.3-5.1-6.6-7.5-10-1.8-2.6-4.4-6.3-8.3-4.3l.5,21.4.5,23.1-18-11.2-17.7-10.9Z"/>
  </g>
  <g id="SPLINE22" data-name="SPLINE">
    <path class="st1" d="M383.7,413.1v-4.2c-7.2-1.2-14.4-2.3-21.6-2.4-2.4,0-7.9.3-10.1.4,1.9,1.2,5.9,4.4,9.4,7,6.5-.7,13.9-1,22.3-.8,0,0,0,0,0,0Z"/>
  </g>
  <g id="HATCH22" data-name="HATCH">
    <path class="st0" d="M383.7,413.1v-4.2c-7.2-1.2-14.4-2.3-21.6-2.4-2.4,0-7.9.3-10.1.4,1.9,1.2,5.9,4.4,9.4,7,6.5-.7,13.9-1,22.3-.8,0,0,0,0,0,0Z"/>
  </g>
  <g id="SPLINE23" data-name="SPLINE">
    <circle class="st1" cx="468.3" cy="65.3" r="13.5"/>
  </g>
  <g id="HATCH23" data-name="HATCH">
    <circle class="st0" cx="468.3" cy="65.3" r="13.5"/>
  </g>
  <g id="SPLINE24" data-name="SPLINE">
    <path class="st1" d="M372.8,101.8c-6.5-.6-7.3-5.4-6.7-10.8,1.2-10.8,8.4-22.4,3.6-32.2-1.1-.3-1.5-.5-1.8-.4-8,2.9-15.8,6.4-23.9,8.5-8.3,2.2-9.8,6.2-5.8,13.4,1.6,3,3.2,6,4.9,8.9,26.2,45.4,65.3,75.3,110.9,97.8,6.7,3.3,7.7.4,9.1-5.4,7.3-31.6,10.1-63.5,7-95.5-3.3,2.7-7.4,4.3-12,4.3-10.5,0-19-8.5-19-19s6-16.2,14.2-18.3c-16.6,0-33.2-1.7-49.9-5.2,0,.1.2.2.2.4-1.3,15.5,21,44.3,31.3,66.4,2.8,5.9,6.1,12.5-2.1,16.5-7.8,3.8-10.2-3.1-12.8-8.6-10.1-21.4-16.3-49.6-30.2-64.3-.8.1-1.7.2-2.5.3-9.6,9.8-3.6,22.8-5.1,34.2-.8,5.8-3.2,9.3-9.3,8.8Z"/>
  </g>
  <g id="HATCH24" data-name="HATCH">
    <path class="st0" d="M372.8,101.8c-6.5-.6-7.3-5.4-6.7-10.8,1.2-10.8,8.4-22.4,3.6-32.2-1.1-.3-1.5-.5-1.8-.4-8,2.9-15.8,6.4-23.9,8.5-8.3,2.2-9.8,6.2-5.8,13.4,1.6,3,3.2,6,4.9,8.9,26.2,45.4,65.3,75.3,110.9,97.8,6.7,3.3,7.7.4,9.1-5.4,7.3-31.6,10.1-63.5,7-95.5-3.3,2.7-7.4,4.3-12,4.3-10.5,0-19-8.5-19-19s6-16.2,14.2-18.3c-16.6,0-33.2-1.7-49.9-5.2,0,.1.2.2.2.4-1.3,15.5,21,44.3,31.3,66.4,2.8,5.9,6.1,12.5-2.1,16.5-7.8,3.8-10.2-3.1-12.8-8.6-10.1-21.4-16.3-49.6-30.2-64.3-.8.1-1.7.2-2.5.3-9.6,9.8-3.6,22.8-5.1,34.2-.8,5.8-3.2,9.3-9.3,8.8Z"/>
  </g>
  <g id="SPLINE25" data-name="SPLINE">
    <path class="st1" d="M466.4,31.8c11.3,0,20.5-9.2,20.5-20.5s-.2-3.1-.5-4.5h-10.8c.7,1.4,1.1,2.9,1.1,4.5,0,5.7-4.6,10.3-10.3,10.3s-10.3-4.6-10.3-10.3.4-3.1,1.1-4.5h-10.8c-.3,1.5-.5,3-.5,4.5,0,11.3,9.2,20.5,20.5,20.5Z"/>
  </g>
  <g id="HATCH25" data-name="HATCH">
    <path class="st0" d="M466.4,31.8c11.3,0,20.5-9.2,20.5-20.5s-.2-3.1-.5-4.5h-10.8c.7,1.4,1.1,2.9,1.1,4.5,0,5.7-4.6,10.3-10.3,10.3s-10.3-4.6-10.3-10.3.4-3.1,1.1-4.5h-10.8c-.3,1.5-.5,3-.5,4.5,0,11.3,9.2,20.5,20.5,20.5Z"/>
  </g>
  <g id="SPLINE26" data-name="SPLINE">
    <path class="st1" d="M429.8,35.8c7.2,0,14.3-.2,21.6-.7-7.8-4.3-13.2-12.6-13.2-22.2s.3-4.2.8-6.2c-10.2,10.5-20.1,20.5-31.5,28.2,6.2.5,13.5.7,22.3.8Z"/>
  </g>
  <g id="HATCH26" data-name="HATCH">
    <path class="st0" d="M429.8,35.8c7.2,0,14.3-.2,21.6-.7-7.8-4.3-13.2-12.6-13.2-22.2s.3-4.2.8-6.2c-10.2,10.5-20.1,20.5-31.5,28.2,6.2.5,13.5.7,22.3.8Z"/>
  </g>
  <g id="SPLINE27" data-name="SPLINE">
    <path class="st1" d="M489.4,126.6c-2,5.5-3.7,12.5-5,20.5,2.3,2.5,5.6,4.1,9.3,4.1,7,0,12.7-5.7,12.7-12.7s-5.7-12.7-12.7-12.7-2.9.3-4.2.8Z"/>
  </g>
  <g id="HATCH27" data-name="HATCH">
    <path class="st0" d="M489.4,126.6c-2,5.5-3.7,12.5-5,20.5,2.3,2.5,5.6,4.1,9.3,4.1,7,0,12.7-5.7,12.7-12.7s-5.7-12.7-12.7-12.7-2.9.3-4.2.8Z"/>
  </g>
  <g id="SPLINE28" data-name="SPLINE">
    <path class="st1" d="M365.4,34c7,0,12.7-5.7,12.7-12.7s-5.7-12.7-12.7-12.7-12.7,5.7-12.7,12.7,5.7,12.7,12.7,12.7Z"/>
  </g>
  <g id="HATCH28" data-name="HATCH">
    <path class="st0" d="M365.4,34c7,0,12.7-5.7,12.7-12.7s-5.7-12.7-12.7-12.7-12.7,5.7-12.7,12.7,5.7,12.7,12.7,12.7Z"/>
  </g>
  <g id="SPLINE29" data-name="SPLINE">
    <path class="st1" d="M548.9,76.2c1-2.9,1.5-6.1,1.5-9.3,0-16.7-13.5-30.2-30.2-30.2s-.3,0-.5,0c-.4-1.3-.7-2.6-.7-4,0-6.7,5.4-12.2,12.2-12.2s9.4,3.1,11.2,7.4c.6-2,1-4.2,1-6.4,0-5.7-2.3-10.9-5.9-14.8h-31.3c-3.7,3.9-5.9,9.1-5.9,14.8s3.4,13.4,8.7,17.3c-11.1,4.5-18.9,15.3-18.9,28s2,12.3,5.4,17.2c4.7-10.1,14.9-17.2,26.7-17.2s17,4.1,22.4,10.5c-4.8,1.7-8.8,4.8-11.8,8.8-2.7-2.8-6.4-4.6-10.6-4.6-7.4,0-13.5,5.5-14.5,12.7,3.8,1.8,8.1,2.8,12.6,2.8s5.5-.4,8-1.1c-.3,1.7-.5,3.4-.5,5.2,0,13.9,11.3,25.3,25.3,25.3s9.4-1.4,13.3-3.8v-42.9c-3.9-2.4-8.4-3.8-13.3-3.8s-2.8.1-4.1.4Z"/>
  </g>
  <g id="HATCH29" data-name="HATCH">
    <path class="st0" d="M548.9,76.2c1-2.9,1.5-6.1,1.5-9.3,0-16.7-13.5-30.2-30.2-30.2s-.3,0-.5,0c-.4-1.3-.7-2.6-.7-4,0-6.7,5.4-12.2,12.2-12.2s9.4,3.1,11.2,7.4c.6-2,1-4.2,1-6.4,0-5.7-2.3-10.9-5.9-14.8h-31.3c-3.7,3.9-5.9,9.1-5.9,14.8s3.4,13.4,8.7,17.3c-11.1,4.5-18.9,15.3-18.9,28s2,12.3,5.4,17.2c4.7-10.1,14.9-17.2,26.7-17.2s17,4.1,22.4,10.5c-4.8,1.7-8.8,4.8-11.8,8.8-2.7-2.8-6.4-4.6-10.6-4.6-7.4,0-13.5,5.5-14.5,12.7,3.8,1.8,8.1,2.8,12.6,2.8s5.5-.4,8-1.1c-.3,1.7-.5,3.4-.5,5.2,0,13.9,11.3,25.3,25.3,25.3s9.4-1.4,13.3-3.8v-42.9c-3.9-2.4-8.4-3.8-13.3-3.8s-2.8.1-4.1.4Z"/>
  </g>
  <g id="SPLINE30" data-name="SPLINE">
    <path class="st1" d="M560.6,11.3c1.8-1,3.9-1,5.7-.3v-4.3h-10.2c-5,3.8-6.6,10.8-3.5,16.4.5,1,1.2,1.8,1.9,2.5-4.3,8.6-2.5,19.3,5.1,25.9,2,1.8,4.3,3.1,6.7,3.9V15.2c-2.9,1.1-5.7,2.8-8,5.1,0,0-.1-.2-.2-.3-1.7-3.1-.6-7,2.5-8.7Z"/>
  </g>
  <g id="HATCH30" data-name="HATCH">
    <path class="st0" d="M560.6,11.3c1.8-1,3.9-1,5.7-.3v-4.3h-10.2c-5,3.8-6.6,10.8-3.5,16.4.5,1,1.2,1.8,1.9,2.5-4.3,8.6-2.5,19.3,5.1,25.9,2,1.8,4.3,3.1,6.7,3.9V15.2c-2.9,1.1-5.7,2.8-8,5.1,0,0-.1-.2-.2-.3-1.7-3.1-.6-7,2.5-8.7Z"/>
  </g>
  <g id="SPLINE31" data-name="SPLINE">
    <path class="st1" d="M533.7,138.8c.4-1,1-1.8,1.9-2.3-7.6-10.9-15-22-22.2-33.2-5.9,2.4-11.5,5.7-16,10.3,12.2,1.8,21.5,12.3,21.5,24.9s-11.3,25.3-25.3,25.3-7.9-1-11.3-2.7c-5,42.4-3.4,98.5,2.3,101.8,8.2,4.7,17.7-1.6,17.7-1.6l40.5-34.6h0s1.2-1.1,1.2-1.1c3.5-3.2,13.9-13.4,21.7-31.2v-9.2c-.5,0-1,0-1.5,0-11.9,0-21.5-9.6-21.5-21.5s9.6-21.5,21.5-21.5,1,0,1.5,0v-7.4c-5.1,1.4-10.2,2.7-15.4,3.9-2.2.5-5,.7-7.6.6.2.9.2,1.8-.2,2.7l-21.5,57.9c-.9,2.4-3.6,3.7-6,2.8-2.4-.9-3.7-3.6-2.8-6l21.5-57.9Z"/>
  </g>
  <g id="HATCH31" data-name="HATCH">
    <path class="st0" d="M533.7,138.8c.4-1,1-1.8,1.9-2.3-7.6-10.9-15-22-22.2-33.2-5.9,2.4-11.5,5.7-16,10.3,12.2,1.8,21.5,12.3,21.5,24.9s-11.3,25.3-25.3,25.3-7.9-1-11.3-2.7c-5,42.4-3.4,98.5,2.3,101.8,8.2,4.7,17.7-1.6,17.7-1.6l40.5-34.6h0s1.2-1.1,1.2-1.1c3.5-3.2,13.9-13.4,21.7-31.2v-9.2c-.5,0-1,0-1.5,0-11.9,0-21.5-9.6-21.5-21.5s9.6-21.5,21.5-21.5,1,0,1.5,0v-7.4c-5.1,1.4-10.2,2.7-15.4,3.9-2.2.5-5,.7-7.6.6.2.9.2,1.8-.2,2.7l-21.5,57.9c-.9,2.4-3.6,3.7-6,2.8-2.4-.9-3.7-3.6-2.8-6l21.5-57.9Z"/>
  </g>
  <g id="SPLINE32" data-name="SPLINE">
    <path class="st1" d="M254.9,363c-.1,0-.3-.2-.4-.3-.7-.9-1.6-1.7-2.6-2.7-4-3.6-7.7-7.4-11.3-11.4-.6,0-1.2,0-1.9.1-28.4,2.6-38.9,11.5-37.9,34.3.6,13.9,5.9,27.7,6.8,41.7.4,6.5-2.7,17.5-7.6,18.9-7.9,2.2-19.4-.6-27.6-4-2.9-1.2-5.5-3.3-7.7-5.8-5.6-11.4-4.4-26.6-3.7-32.7.1-.8.3-1.7.4-2.6,0-.1,0-.2,0-.2h0c2.5-18.7,1.5-45.8,6.7-54.8,8-13.8,55.7-16.3,50.2-25.7,0,0,0,0,0,0-.7-1.3-1.4-2.5-2.1-3.8-.7-1.2-1.4-2.3-2.1-3.4,0,0,0,0,0,0,0,0,0,0,0-.1-.2-.3-.4-.6-.6-.8-.2-.3-.4-.6-.6-.8,0,0-.1-.1-.2-.2-.4-.5-.9-.9-1.3-1.4-.1,0-.2-.2-.3-.3-.4-.4-.9-.7-1.3-1.1-.2-.1-.3-.2-.5-.3-.4-.3-.8-.6-1.3-.8-.2-.1-.5-.2-.7-.4-.2,0-.4-.2-.6-.3-.2,0-.4-.2-.6-.3-.4-.1-.8-.3-1.2-.4-.3-.1-.7-.2-1-.3-.8-.2-1.6-.4-2.4-.5-11-1.6-21.7-2.4-32.3-2.4-4.7,0-9.4.2-14.1.5h.2c-52,3.4-67.7,18.4-67.7,18.4h0c-.9.4-1.5,1-1.7,1.6,0,0,0,0-.1,0,0,0,0,0,0,.1,0,.1,0,.2,0,.4,0,.2,0,.4.1.6h0s0,0,0,0c0,.1.2.3.3.4l7.4,11.6c17.9,31.2,31.3,63.9,35.5,99.5.9,7.6,7.2,18.9,14.6,21.3,23.9,7.5,49.1,13.6,74.5,16.3,17.8,1.9,27.6-8.4,23.6-23.6-3.4-13.1-7.7-26-10.9-39.1-5.7-22.9,3-39.4,24.3-45.7Z"/>
  </g>
  <g id="HATCH32" data-name="HATCH">
    <path class="st0" d="M254.9,363c-.1,0-.3-.2-.4-.3-.7-.9-1.6-1.7-2.6-2.7-4-3.6-7.7-7.4-11.3-11.4-.6,0-1.2,0-1.9.1-28.4,2.6-38.9,11.5-37.9,34.3.6,13.9,5.9,27.7,6.8,41.7.4,6.5-2.7,17.5-7.6,18.9-7.9,2.2-19.4-.6-27.6-4-2.9-1.2-5.5-3.3-7.7-5.8-5.6-11.4-4.4-26.6-3.7-32.7.1-.8.3-1.7.4-2.6,0-.1,0-.2,0-.2h0c2.5-18.7,1.5-45.8,6.7-54.8,8-13.8,55.7-16.3,50.2-25.7,0,0,0,0,0,0-.7-1.3-1.4-2.5-2.1-3.8-.7-1.2-1.4-2.3-2.1-3.4,0,0,0,0,0,0,0,0,0,0,0-.1-.2-.3-.4-.6-.6-.8-.2-.3-.4-.6-.6-.8,0,0-.1-.1-.2-.2-.4-.5-.9-.9-1.3-1.4-.1,0-.2-.2-.3-.3-.4-.4-.9-.7-1.3-1.1-.2-.1-.3-.2-.5-.3-.4-.3-.8-.6-1.3-.8-.2-.1-.5-.2-.7-.4-.2,0-.4-.2-.6-.3-.2,0-.4-.2-.6-.3-.4-.1-.8-.3-1.2-.4-.3-.1-.7-.2-1-.3-.8-.2-1.6-.4-2.4-.5-11-1.6-21.7-2.4-32.3-2.4-4.7,0-9.4.2-14.1.5h.2c-52,3.4-67.7,18.4-67.7,18.4h0c-.9.4-1.5,1-1.7,1.6,0,0,0,0-.1,0,0,0,0,0,0,.1,0,.1,0,.2,0,.4,0,.2,0,.4.1.6h0s0,0,0,0c0,.1.2.3.3.4l7.4,11.6c17.9,31.2,31.3,63.9,35.5,99.5.9,7.6,7.2,18.9,14.6,21.3,23.9,7.5,49.1,13.6,74.5,16.3,17.8,1.9,27.6-8.4,23.6-23.6-3.4-13.1-7.7-26-10.9-39.1-5.7-22.9,3-39.4,24.3-45.7Z"/>
  </g>
  <g id="SPLINE33" data-name="SPLINE">
    <path class="st1" d="M260,100.7c32.3,33.9,72.9,47.8,118.7,52.6-13.5-20.1-29-33.4-53.4-30.2-4,.5-8.1-.2-12.2-.5-5.9-.4-10.1-2.9-9.5-9.8.5-6.6,5.2-7.5,10.4-7.2,8.1.5,23,8.4,31.8,9-1.5-3.6-3.4-6.9-5.6-9.9-5.2-7.2-12.3-12.9-20.3-17.4-32.6-18.2-80.7-16.9-80.7-16.9,3.5,11.1,11.1,20.3,20.1,29.3.3.3.4.6.7.9Z"/>
  </g>
  <g id="HATCH33" data-name="HATCH">
    <path class="st0" d="M260,100.7c32.3,33.9,72.9,47.8,118.7,52.6-13.5-20.1-29-33.4-53.4-30.2-4,.5-8.1-.2-12.2-.5-5.9-.4-10.1-2.9-9.5-9.8.5-6.6,5.2-7.5,10.4-7.2,8.1.5,23,8.4,31.8,9-1.5-3.6-3.4-6.9-5.6-9.9-5.2-7.2-12.3-12.9-20.3-17.4-32.6-18.2-80.7-16.9-80.7-16.9,3.5,11.1,11.1,20.3,20.1,29.3.3.3.4.6.7.9Z"/>
  </g>
  <g id="SPLINE34" data-name="SPLINE">
    <path class="st1" d="M308.9,67.3l-64.3-44.6c-.5,9.4-1.5,21-3.3,32.9,0,0,39.1-1,67.6,11.7Z"/>
  </g>
  <g id="HATCH34" data-name="HATCH">
    <path class="st0" d="M308.9,67.3l-64.3-44.6c-.5,9.4-1.5,21-3.3,32.9,0,0,39.1-1,67.6,11.7Z"/>
  </g>
  <g id="SPLINE35" data-name="SPLINE">
    <path class="st1" d="M314.5,55.4c9.9,1.3,23.9-4.8,33.2-8.8,3.1-1.1,6.1-2.2,8.9-3.3-9.6-3.3-16.5-12.2-16.5-22.7s1.7-9.9,4.5-13.8h-17c-.3,9.7-8.5,17.5-18.6,17.5s-18.3-7.8-18.6-17.5h-43.3l62.9,47.6c1.5.6,3,.9,4.5,1Z"/>
  </g>
  <g id="HATCH35" data-name="HATCH">
    <path class="st0" d="M314.5,55.4c9.9,1.3,23.9-4.8,33.2-8.8,3.1-1.1,6.1-2.2,8.9-3.3-9.6-3.3-16.5-12.2-16.5-22.7s1.7-9.9,4.5-13.8h-17c-.3,9.7-8.5,17.5-18.6,17.5s-18.3-7.8-18.6-17.5h-43.3l62.9,47.6c1.5.6,3,.9,4.5,1Z"/>
  </g>
  <g id="IMAGE">
    <image width="2321" height="662" transform="translate(17.5 500.3) scale(.3)" xlink:href="SA2_dwg_1.png"/>
  </g>
</svg>