<?xml version="1.0" encoding="UTF-8"?>
<svg id="Layer_1" xmlns="http://www.w3.org/2000/svg" version="1.1" viewBox="0 0 600 600">
  <!-- Generator: Adobe Illustrator 30.3.0, SVG Export Plug-In . SVG Version: 2.1.3 Build 182)  -->
  <defs>
    <style>
      .st0 {
        fill: #434142;
      }

      .st1 {
        fill: none;
        stroke: #000;
        stroke-linecap: round;
        stroke-linejoin: round;
      }
    </style>
  </defs>
  <g id="SPLINE">
    <path class="st1" d="M256.7,412.1c5.5,4.9,11.2,9.6,17.1,14.1,22.8,1.3,45.5,4.3,68.2,7.3-1.3-2.1-2.7-4.1-4.2-5.9-26.5-7.3-53.3-13.4-81.1-15.6Z"/>
  </g>
  <g id="HATCH">
    <path class="st0" d="M256.7,412.1c5.5,4.9,11.2,9.6,17.1,14.1,22.8,1.3,45.5,4.3,68.2,7.3-1.3-2.1-2.7-4.1-4.2-5.9-26.5-7.3-53.3-13.4-81.1-15.6Z"/>
  </g>
  <g id="SPLINE1" data-name="SPLINE">
    <path class="st1" d="M281,460.9c-5.4-3.8-10.9-7.5-16.3-11.2-16,5.2-24.6,17.2-23.3,33.9,1.6,21,8.8,41.7,11.6,62.8,3.7,28.6-1.6,32.6-38.3,33.3-7.9.1-15.9.2-23.8-.2-7.8-.3-15.6-1.2-24.3,3.5,26.4,2.4,52.7,5.8,79.1,7,23.3,1,32.4-10.2,28.2-27.6-3.7-15.5-9.4-30.6-13.2-46.1-6.9-27.9,0-46.4,20.4-55.3Z"/>
  </g>
  <g id="HATCH1" data-name="HATCH">
    <path class="st0" d="M281,460.9c-5.4-3.8-10.9-7.5-16.3-11.2-16,5.2-24.6,17.2-23.3,33.9,1.6,21,8.8,41.7,11.6,62.8,3.7,28.6-1.6,32.6-38.3,33.3-7.9.1-15.9.2-23.8-.2-7.8-.3-15.6-1.2-24.3,3.5,26.4,2.4,52.7,5.8,79.1,7,23.3,1,32.4-10.2,28.2-27.6-3.7-15.5-9.4-30.6-13.2-46.1-6.9-27.9,0-46.4,20.4-55.3Z"/>
  </g>
  <g id="SPLINE2" data-name="SPLINE">
    <path class="st1" d="M329.6,455.2c9.5.6,18.9,1.6,28.3,2.6-1.4-2.1-2.8-4.2-4.2-6.3-15.6-1.4-31.2-3-46.7-4,4.5,2.5,9.2,4.9,13.9,7.3,2.8,0,5.7.2,8.8.4Z"/>
  </g>
  <g id="HATCH2" data-name="HATCH">
    <path class="st0" d="M329.6,455.2c9.5.6,18.9,1.6,28.3,2.6-1.4-2.1-2.8-4.2-4.2-6.3-15.6-1.4-31.2-3-46.7-4,4.5,2.5,9.2,4.9,13.9,7.3,2.8,0,5.7.2,8.8.4Z"/>
  </g>
  <g id="SPLINE3" data-name="SPLINE">
    <path class="st1" d="M322.5,485.6c-4.9-2.8-10-5.5-15.1-8.1-17,5.6-22.8,18.4-19.5,39.8,2.4,15.5,8.7,30.7,13.8,45.9.6,1.9,1.2,3.7,1.7,5.4,3.2-1.7,6.5-3.3,9.8-5-5.2-14.2-10.1-28.6-11.9-43.1-2.1-17.1,5.7-29.1,21.2-35Z"/>
  </g>
  <g id="HATCH3" data-name="HATCH">
    <path class="st0" d="M322.5,485.6c-4.9-2.8-10-5.5-15.1-8.1-17,5.6-22.8,18.4-19.5,39.8,2.4,15.5,8.7,30.7,13.8,45.9.6,1.9,1.2,3.7,1.7,5.4,3.2-1.7,6.5-3.3,9.8-5-5.2-14.2-10.1-28.6-11.9-43.1-2.1-17.1,5.7-29.1,21.2-35Z"/>
  </g>
  <g id="SPLINE4" data-name="SPLINE">
    <path class="st1" d="M347.2,501.7c-18.7,6.5-24.1,21.1-17.4,45,.7,2.5,1.5,4.9,2.3,7.4,2.9-1.5,5.8-3,8.8-4.5-4.7-19.9,1.1-32.5,18.3-39-.4-.2-.7-.4-1.1-.6-3.6-2.9-7.2-5.7-10.9-8.4Z"/>
  </g>
  <g id="HATCH4" data-name="HATCH">
    <path class="st0" d="M347.2,501.7c-18.7,6.5-24.1,21.1-17.4,45,.7,2.5,1.5,4.9,2.3,7.4,2.9-1.5,5.8-3,8.8-4.5-4.7-19.9,1.1-32.5,18.3-39-.4-.2-.7-.4-1.1-.6-3.6-2.9-7.2-5.7-10.9-8.4Z"/>
  </g>
  <g id="SPLINE5" data-name="SPLINE">
    <path class="st1" d="M30.8,554.2c19.3,7.2,41,10.6,61.6,15.7.8-2.1,1.6-4.2,2.4-6.3-9-2.9-18.2-5.5-26.9-8.9-29.9-11.4-33.4-23.2-29.3-49.5,3.5-21.8,5.8-47.1-4.9-66.2-8-14.4-17.3-28.5-27.4-42.2-1.9,1.7-3.9,3.3-6.3,3.8v1.9c6.3,8.6,12.4,17.3,18.3,26.1,17.7,26,18.7,52-4.2,78.1-18.3,20.9-12.5,36.6,16.7,47.5Z"/>
  </g>
  <g id="HATCH5" data-name="HATCH">
    <path class="st0" d="M30.8,554.2c19.3,7.2,41,10.6,61.6,15.7.8-2.1,1.6-4.2,2.4-6.3-9-2.9-18.2-5.5-26.9-8.9-29.9-11.4-33.4-23.2-29.3-49.5,3.5-21.8,5.8-47.1-4.9-66.2-8-14.4-17.3-28.5-27.4-42.2-1.9,1.7-3.9,3.3-6.3,3.8v1.9c6.3,8.6,12.4,17.3,18.3,26.1,17.7,26,18.7,52-4.2,78.1-18.3,20.9-12.5,36.6,16.7,47.5Z"/>
  </g>
  <g id="SPLINE6" data-name="SPLINE">
    <path class="st1" d="M0,572.1v18.9c41.5-.4,83.1-.1,124.9-2.4-40.4-5-81.5-8.1-121.2-15.6-1.3-.2-2.5-.6-3.7-.9Z"/>
  </g>
  <g id="HATCH6" data-name="HATCH">
    <path class="st0" d="M0,572.1v18.9c41.5-.4,83.1-.1,124.9-2.4-40.4-5-81.5-8.1-121.2-15.6-1.3-.2-2.5-.6-3.7-.9Z"/>
  </g>
  <g id="SPLINE7" data-name="SPLINE">
    <path class="st1" d="M408.1,207.6c1.1-6.7-1.4-8.9-7.5-8.9-13.5.2-26.9-1.3-40.3-3.5-3.3-.5-7.2-1.6-9.6,2.1-7.4,11.7-13.2,24.6-14.9,38.1-1,8.1,6.1,13.9,12.5,19.1,1.6,1.3,3.7,3.7,5.1,5.4,15.2,18.6,25.6,39.9,36.6,62,6-38.2,11.8-76.3,18-114.5Z"/>
  </g>
  <g id="HATCH7" data-name="HATCH">
    <path class="st0" d="M408.1,207.6c1.1-6.7-1.4-8.9-7.5-8.9-13.5.2-26.9-1.3-40.3-3.5-3.3-.5-7.2-1.6-9.6,2.1-7.4,11.7-13.2,24.6-14.9,38.1-1,8.1,6.1,13.9,12.5,19.1,1.6,1.3,3.7,3.7,5.1,5.4,15.2,18.6,25.6,39.9,36.6,62,6-38.2,11.8-76.3,18-114.5Z"/>
  </g>
  <g id="SPLINE8" data-name="SPLINE">
    <path class="st1" d="M301.2,212.4c10.8,3.5,17.5-.3,25.6-12.6,4.5-6.8,5.2-11.1-6-13.1-8.7-1.5-17.8-3.6-25.3-7.3-8.3-4.2-15.9-5.4-23.3-4.5-6.5.8-12.9,3.2-19.3,6.7-1.9,1-3.8,2.2-5.8,3.4,3.9,2,7.8,4,11.6,6,10.8,5.5,21.3,10.8,31.6,16.5,4.1,2.3,7.6,3.9,10.8,5Z"/>
  </g>
  <g id="HATCH8" data-name="HATCH">
    <path class="st0" d="M301.2,212.4c10.8,3.5,17.5-.3,25.6-12.6,4.5-6.8,5.2-11.1-6-13.1-8.7-1.5-17.8-3.6-25.3-7.3-8.3-4.2-15.9-5.4-23.3-4.5-6.5.8-12.9,3.2-19.3,6.7-1.9,1-3.8,2.2-5.8,3.4,3.9,2,7.8,4,11.6,6,10.8,5.5,21.3,10.8,31.6,16.5,4.1,2.3,7.6,3.9,10.8,5Z"/>
  </g>
  <g id="SPLINE9" data-name="SPLINE">
    <path class="st1" d="M162.2,257.7c1.1-.7,2.2-1.4,3.3-2-1.9-7.4-2.6-14.8-2.9-22.5-.2-4.6-.2-9.2-.3-14.1,0-3.4,0-6.8-.2-10.3-4.2,4.2-7.9,7.9-11.4,11.4-2.7,2.7-5.3,5.3-7.9,7.8-2.3,2.2-4.2,4.7-2,7.5.1.1.2.3.3.4,6.8,7.4,14,14.5,21,21.8Z"/>
  </g>
  <g id="HATCH9" data-name="HATCH">
    <path class="st0" d="M162.2,257.7c1.1-.7,2.2-1.4,3.3-2-1.9-7.4-2.6-14.8-2.9-22.5-.2-4.6-.2-9.2-.3-14.1,0-3.4,0-6.8-.2-10.3-4.2,4.2-7.9,7.9-11.4,11.4-2.7,2.7-5.3,5.3-7.9,7.8-2.3,2.2-4.2,4.7-2,7.5.1.1.2.3.3.4,6.8,7.4,14,14.5,21,21.8Z"/>
  </g>
  <g id="SPLINE10" data-name="SPLINE">
    <path class="st1" d="M487.6,252.7c-.2-4.6,1.6-9.9-4.7-12.4-19-7.6-36.6-18.2-55.8-29.4-3.5,22.5-11.4,66.4-14.9,89.1,11.2-10.9,25.8-43.2,35.2-53,4.9-5,12.6-7.6,19.2-1.9,6.9,6,.7,9.6-4.6,15.4-11.8,13-23.1,26.6-35.5,39-11,11-16.6,23.6-19.8,39.2-2.1,10.4-3.1,20.7-3.3,31h54c19.9-36.1,32.1-74.7,30.2-117.1Z"/>
  </g>
  <g id="HATCH10" data-name="HATCH">
    <path class="st0" d="M487.6,252.7c-.2-4.6,1.6-9.9-4.7-12.4-19-7.6-36.6-18.2-55.8-29.4-3.5,22.5-11.4,66.4-14.9,89.1,11.2-10.9,25.8-43.2,35.2-53,4.9-5,12.6-7.6,19.2-1.9,6.9,6,.7,9.6-4.6,15.4-11.8,13-23.1,26.6-35.5,39-11,11-16.6,23.6-19.8,39.2-2.1,10.4-3.1,20.7-3.3,31h54c19.9-36.1,32.1-74.7,30.2-117.1Z"/>
  </g>
  <g id="SPLINE11" data-name="SPLINE">
    <path class="st1" d="M301.3,328.7c0,4.4,10.7,23.4,13.4,27.5,3,4.5,6,9.1,9,13.6h56.6c-6.9-36.3-20.5-70.2-45.4-100.5-8.3-10.1-17.2-19.2-26.5-27.6-9.8-8.7-20-16.5-30.8-23.6-13.3-8.7-27.2-16.1-41.8-22.6-7.9-3.5-15.9-6.8-24-9.8-6.6-2.4-13.3-4.7-20.1-6.9-5.4-1.7-7.6-.5-8.3,5.8-1.1,10.6-1.6,21.1-1.7,31.6,0,4.8,0,9.7.3,14.5.4,8.9,1.1,17.9,2.1,26.8.8,6.6,1.7,13.2,2.8,19.8.9,5.4,1.9,10.7,3,16,4.9,23.6,12.6,44.5,22.7,63.1,1.3,2.4,2.6,4.7,4,7,.7,1.1,1.4,2.2,2,3.2.7,1.1,1.3,2.2,2,3.2,0,0,0,0,0,0h0c7.1,6,13.6,13.8,22.8,17.3,28.8,11.2,61.3,8.6,91.9,12.9-11-2.6-22.1-5.2-33.2-7.7-12.5-2.8-19.4-7.1-14.8-14.1,1.2-1.8,10.3-7.5,12.2-8.4h0s0,0,0,0c-21.6-33.3-43.2-66.5-64.9-99.6-3.1-4.7-6.2-9.5-9.3-14.2-.6-1-1.3-2-1.9-3-2.1-3.5-3.2-6.9,1.3-10.5,5.6-4.4,11.1-4,16.1,1.5,1.2,1.3,2.3,2.8,3.4,4.2,3.5,5,6.2,10.5,9.5,15.6.8,1.2,1.6,2.4,2.4,3.6,11.5,17.7,23.2,35.2,34.9,52.7,2.4-14.9,2.9-28.7,2.2-42.4-.4-9.3,4.9-12,11.9-12,7.5,0,6.9,6.4,6.9,11.9,0,21.9-10.9,29.1-10.8,51Z"/>
  </g>
  <g id="HATCH11" data-name="HATCH">
    <path class="st0" d="M301.3,328.7c0,4.4,10.7,23.4,13.4,27.5,3,4.5,6,9.1,9,13.6h56.6c-6.9-36.3-20.5-70.2-45.4-100.5-8.3-10.1-17.2-19.2-26.5-27.6-9.8-8.7-20-16.5-30.8-23.6-13.3-8.7-27.2-16.1-41.8-22.6-7.9-3.5-15.9-6.8-24-9.8-6.6-2.4-13.3-4.7-20.1-6.9-5.4-1.7-7.6-.5-8.3,5.8-1.1,10.6-1.6,21.1-1.7,31.6,0,4.8,0,9.7.3,14.5.4,8.9,1.1,17.9,2.1,26.8.8,6.6,1.7,13.2,2.8,19.8.9,5.4,1.9,10.7,3,16,4.9,23.6,12.6,44.5,22.7,63.1,1.3,2.4,2.6,4.7,4,7,.7,1.1,1.4,2.2,2,3.2.7,1.1,1.3,2.2,2,3.2,0,0,0,0,0,0h0c7.1,6,13.6,13.8,22.8,17.3,28.8,11.2,61.3,8.6,91.9,12.9-11-2.6-22.1-5.2-33.2-7.7-12.5-2.8-19.4-7.1-14.8-14.1,1.2-1.8,10.3-7.5,12.2-8.4h0s0,0,0,0c-21.6-33.3-43.2-66.5-64.9-99.6-3.1-4.7-6.2-9.5-9.3-14.2-.6-1-1.3-2-1.9-3-2.1-3.5-3.2-6.9,1.3-10.5,5.6-4.4,11.1-4,16.1,1.5,1.2,1.3,2.3,2.8,3.4,4.2,3.5,5,6.2,10.5,9.5,15.6.8,1.2,1.6,2.4,2.4,3.6,11.5,17.7,23.2,35.2,34.9,52.7,2.4-14.9,2.9-28.7,2.2-42.4-.4-9.3,4.9-12,11.9-12,7.5,0,6.9,6.4,6.9,11.9,0,21.9-10.9,29.1-10.8,51Z"/>
  </g>
  <g id="SPLINE12" data-name="SPLINE">
    <path class="st1" d="M595.5,380.4h-272.5c-2.5,0-4.5,2-4.5,4.5s2,4.5,4.5,4.5h272.5c2.5,0,4.5-2,4.5-4.5s-2-4.5-4.5-4.5Z"/>
  </g>
  <g id="HATCH12" data-name="HATCH">
    <path class="st0" d="M595.5,380.4h-272.5c-2.5,0-4.5,2-4.5,4.5s2,4.5,4.5,4.5h272.5c2.5,0,4.5-2,4.5-4.5s-2-4.5-4.5-4.5Z"/>
  </g>
  <g id="SPLINE13" data-name="SPLINE">
    <path class="st1" d="M595.5,398.6h-229.8c-2.5,0-4.5,2-4.5,4.5s2,4.5,4.5,4.5h229.8c2.5,0,4.5-2,4.5-4.5s-2-4.5-4.5-4.5Z"/>
  </g>
  <g id="HATCH13" data-name="HATCH">
    <path class="st0" d="M595.5,398.6h-229.8c-2.5,0-4.5,2-4.5,4.5s2,4.5,4.5,4.5h229.8c2.5,0,4.5-2,4.5-4.5s-2-4.5-4.5-4.5Z"/>
  </g>
  <g id="SPLINE14" data-name="SPLINE">
    <path class="st1" d="M448.1,465.4v-25.2c-11.4.5-20.7,2.2-27.7,5.2-8.2,3.5-14.3,8.3-18.4,14.5-4.2,6.2-6.3,12.8-6.3,19.7,0,10.6,4,19.3,12.1,26.2,7.9,6.8,21.2,12.2,39.9,16.4.1,0,.2,0,.3,0v-36.7c-5-1.2-8.3-2.5-9.8-3.9-2-1.7-3.1-3.7-3.1-5.9s1.3-5.4,3.8-7.5c2.1-1.7,5.2-2.7,9.1-2.9Z"/>
  </g>
  <g id="HATCH14" data-name="HATCH">
    <path class="st0" d="M448.1,465.4v-25.2c-11.4.5-20.7,2.2-27.7,5.2-8.2,3.5-14.3,8.3-18.4,14.5-4.2,6.2-6.3,12.8-6.3,19.7,0,10.6,4,19.3,12.1,26.2,7.9,6.8,21.2,12.2,39.9,16.4.1,0,.2,0,.3,0v-36.7c-5-1.2-8.3-2.5-9.8-3.9-2-1.7-3.1-3.7-3.1-5.9s1.3-5.4,3.8-7.5c2.1-1.7,5.2-2.7,9.1-2.9Z"/>
  </g>
  <g id="SPLINE15" data-name="SPLINE">
    <path class="st1" d="M595.5,418.3h-196.1c-2.5,0-4.5,2-4.5,4.5s2,4.5,4.5,4.5h191.6v140c0,.4.1.7.2,1h-6.3c0-.4-.1-.7-.3-1.1l-36.5-107.3c-1.2-3.5-3.3-6.3-6.1-8.7l-13.3,44,14,46.5,8.7,26.6h-53.2c3.1-2.3,5.8-5,8.1-8,.9-.4,1.7-.8,2.6-1.1,1.7-.6,3.4-.8,5.2-.8h16.9c2.1,0,4,.4,5.9,1.1l-9.3-30.9c-1.3.6-2.7.9-4.4.9h-.9c-.2,0-.3,0-.4,0,0,0-.2,0-.3,0-4.8.1-8.8-2.8-10.6-4.4-.4-.3-.8-.7-1.2-1.1,0,0,0,0,0,0h0c-1.2-1.6-1.7-3.7-1.1-5.7l14.5-48,7.5-25.1c-.7-.2-1.4-.3-2-.3h-15.3c-3.5,0-6.9,1.3-10.3,4-1.6,1.2-3,2.6-4.1,4.1,0,0-.1.1-.2.2-1.3-1.3-2.7-2.4-4.2-3.5-8.5-5.8-20.4-9-35.8-9.6v26.5c2.1.7,4,1.7,5.4,2.9,1.9,1.6,3.4,3.6,4.6,6,.9,2,2.9,3.6,6,4.8,3.2,1.4,6.7,1.9,10.6,1.6l2.8-.2-4.5,13.2c-6.5-2.3-14.8-4.6-24.9-6.9v37c5.2,1.6,8.8,3.3,10.7,5.1,3.2,2.7,4.7,5.9,4.7,9.5s-1.6,6.9-4.9,9.7c-2.6,2.2-6.1,3.5-10.6,4v15h-5.2c0,0-.1,0-.2,0s-.1,0-.2,0h-.3s0,0,0,0c-2.7-.2-4.9-2.5-4.9-5.3v-10.4c-4.7-1.2-8.6-3.6-11.6-7.4-1.5-1.8-2.7-4.2-3.6-7-.7-2.1-2.6-3.8-5.6-5.2-3.1-1.4-6.6-1.9-10.5-1.6l-11.9.7c-4,.3-7.2,1.9-9.6,4.8-2.5,3-3.1,6.4-1.8,10,2.5,7.6,6.6,14.2,12.4,19.9.6.6,1.2,1,1.8,1.6h-27.5v20.9h219.7v-20.9h-.2c0-.3.2-.6.2-1v-142.3c0-.4-.1-.7-.2-1.1,0-.4.2-.7.2-1.1,0-2.5-2-4.5-4.5-4.5Z"/>
  </g>
  <g id="HATCH15" data-name="HATCH">
    <path class="st0" d="M595.5,418.3h-196.1c-2.5,0-4.5,2-4.5,4.5s2,4.5,4.5,4.5h191.6v140c0,.4.1.7.2,1h-6.3c0-.4-.1-.7-.3-1.1l-36.5-107.3c-1.2-3.5-3.3-6.3-6.1-8.7l-13.3,44,14,46.5,8.7,26.6h-53.2c3.1-2.3,5.8-5,8.1-8,.9-.4,1.7-.8,2.6-1.1,1.7-.6,3.4-.8,5.2-.8h16.9c2.1,0,4,.4,5.9,1.1l-9.3-30.9c-1.3.6-2.7.9-4.4.9h-.9c-.2,0-.3,0-.4,0,0,0-.2,0-.3,0-4.8.1-8.8-2.8-10.6-4.4-.4-.3-.8-.7-1.2-1.1,0,0,0,0,0,0h0c-1.2-1.6-1.7-3.7-1.1-5.7l14.5-48,7.5-25.1c-.7-.2-1.4-.3-2-.3h-15.3c-3.5,0-6.9,1.3-10.3,4-1.6,1.2-3,2.6-4.1,4.1,0,0-.1.1-.2.2-1.3-1.3-2.7-2.4-4.2-3.5-8.5-5.8-20.4-9-35.8-9.6v26.5c2.1.7,4,1.7,5.4,2.9,1.9,1.6,3.4,3.6,4.6,6,.9,2,2.9,3.6,6,4.8,3.2,1.4,6.7,1.9,10.6,1.6l2.8-.2-4.5,13.2c-6.5-2.3-14.8-4.6-24.9-6.9v37c5.2,1.6,8.8,3.3,10.7,5.1,3.2,2.7,4.7,5.9,4.7,9.5s-1.6,6.9-4.9,9.7c-2.6,2.2-6.1,3.5-10.6,4v15h-5.2c0,0-.1,0-.2,0s-.1,0-.2,0h-.3s0,0,0,0c-2.7-.2-4.9-2.5-4.9-5.3v-10.4c-4.7-1.2-8.6-3.6-11.6-7.4-1.5-1.8-2.7-4.2-3.6-7-.7-2.1-2.6-3.8-5.6-5.2-3.1-1.4-6.6-1.9-10.5-1.6l-11.9.7c-4,.3-7.2,1.9-9.6,4.8-2.5,3-3.1,6.4-1.8,10,2.5,7.6,6.6,14.2,12.4,19.9.6.6,1.2,1,1.8,1.6h-27.5v20.9h219.7v-20.9h-.2c0-.3.2-.6.2-1v-142.3c0-.4-.1-.7-.2-1.1,0-.4.2-.7.2-1.1,0-2.5-2-4.5-4.5-4.5Z"/>
  </g>
  <g id="SPLINE16" data-name="SPLINE">
    <path class="st1" d="M400,26.1c7.9-5.2,15.4-10.9,22.6-17.1h-31.1c1.4,7.8,4,13.3,8.6,17.1Z"/>
  </g>
  <g id="HATCH16" data-name="HATCH">
    <path class="st0" d="M400,26.1c7.9-5.2,15.4-10.9,22.6-17.1h-31.1c1.4,7.8,4,13.3,8.6,17.1Z"/>
  </g>
  <g id="SPLINE17" data-name="SPLINE">
    <path class="st1" d="M599.6,369.8v-63.5c-2.4-.2-14.7-.9-27.3,0h0c-43.1,3.8-73.9,26.1-95,63.5h122.4Z"/>
  </g>
  <g id="HATCH17" data-name="HATCH">
    <path class="st0" d="M599.6,369.8v-63.5c-2.4-.2-14.7-.9-27.3,0h0c-43.1,3.8-73.9,26.1-95,63.5h122.4Z"/>
  </g>
  <g id="SPLINE18" data-name="SPLINE">
    <path class="st1" d="M20.7,277c25.3-9,49.1-20.7,70.7-36.1,7.8-5.6,15.2-11.6,22.4-18.2,6.5-6,12.8-12.5,18.7-19.5.9-1,1.6-2.1,2.5-3.1,13.1-16.1,23.3-33.1,31.1-50.8,4.3-9.7,7.9-19.7,10.9-29.8.8-2.8,1.6-5.6,2.4-8.4,2.9-11,5-22.3,6.6-33.7.3-2.5.6-5,.9-7.5,1.5-12.7,2.4-25.6,2.7-38.7.8-7.4,1.3-14.8,1.6-22.2H0v274.8h0c7-2.1,13.9-4.3,20.7-6.8Z"/>
  </g>
  <g id="HATCH18" data-name="HATCH">
    <path class="st0" d="M20.7,277c25.3-9,49.1-20.7,70.7-36.1,7.8-5.6,15.2-11.6,22.4-18.2,6.5-6,12.8-12.5,18.7-19.5.9-1,1.6-2.1,2.5-3.1,13.1-16.1,23.3-33.1,31.1-50.8,4.3-9.7,7.9-19.7,10.9-29.8.8-2.8,1.6-5.6,2.4-8.4,2.9-11,5-22.3,6.6-33.7.3-2.5.6-5,.9-7.5,1.5-12.7,2.4-25.6,2.7-38.7.8-7.4,1.3-14.8,1.6-22.2H0v274.8h0c7-2.1,13.9-4.3,20.7-6.8Z"/>
  </g>
  <g id="SPLINE19" data-name="SPLINE">
    <path class="st1" d="M48.9,350.9c13-5.6,26.3-10.6,40.8-14.2-7.8-13.3-15.6-25-21.8-37.6-6.1-12.3-12.5-16.5-26-9.4-8.4,4.4-12.9,7.9-12.7,17.8,0,.5,0,1,0,1.5.5,9.1,1,18.3.3,27.5L0,315v60.9s42.9-21.8,49-24.9h0Z"/>
  </g>
  <g id="HATCH19" data-name="HATCH">
    <path class="st0" d="M48.9,350.9c13-5.6,26.3-10.6,40.8-14.2-7.8-13.3-15.6-25-21.8-37.6-6.1-12.3-12.5-16.5-26-9.4-8.4,4.4-12.9,7.9-12.7,17.8,0,.5,0,1,0,1.5.5,9.1,1,18.3.3,27.5L0,315v60.9s42.9-21.8,49-24.9h0Z"/>
  </g>
  <g id="SPLINE20" data-name="SPLINE">
    <path class="st1" d="M243.8,159.3l-38-45.7s-2.3,18.6-4.1,24.5c-1.8,5.9-10.4,22.3-10.4,22.3,0,0,14.8-.9,21.4-1,5.5,0,29.1,5.1,31.1,0Z"/>
  </g>
  <g id="HATCH20" data-name="HATCH">
    <path class="st0" d="M243.8,159.3l-38-45.7s-2.3,18.6-4.1,24.5c-1.8,5.9-10.4,22.3-10.4,22.3,0,0,14.8-.9,21.4-1,5.5,0,29.1,5.1,31.1,0Z"/>
  </g>
  <g id="SPLINE21" data-name="SPLINE">
    <path class="st1" d="M79.4,273.7c-2.2,2-2,4,0,7.4,4.4,7.1,8.7,14.4,13,21.6,3.8,6.4,7.6,12.9,11.4,19.3h0s6.2,12.4,6.2,12.4c0,0,35.2-1.4,54.9-.3,2.2.4,4.4.7,6.2.5,2.6-.3,4.6-1.3,5.8-4,3-7.1-5-17.9-9.3-26.6-2.8-5.6-6.1-10.7-9.6-15.6-6-8.4-12.8-16.2-19.2-24.2-3.1-3.9-6.1-7.8-8.8-11.8-2.1-3.1-5.2-7.5-9.8-5.1l.6,25.2.6,27.3-21.3-13.2-20.8-12.9Z"/>
  </g>
  <g id="HATCH21" data-name="HATCH">
    <path class="st0" d="M79.4,273.7c-2.2,2-2,4,0,7.4,4.4,7.1,8.7,14.4,13,21.6,3.8,6.4,7.6,12.9,11.4,19.3h0s6.2,12.4,6.2,12.4c0,0,35.2-1.4,54.9-.3,2.2.4,4.4.7,6.2.5,2.6-.3,4.6-1.3,5.8-4,3-7.1-5-17.9-9.3-26.6-2.8-5.6-6.1-10.7-9.6-15.6-6-8.4-12.8-16.2-19.2-24.2-3.1-3.9-6.1-7.8-8.8-11.8-2.1-3.1-5.2-7.5-9.8-5.1l.6,25.2.6,27.3-21.3-13.2-20.8-12.9Z"/>
  </g>
  <g id="SPLINE22" data-name="SPLINE">
    <path class="st1" d="M384.8,488v-5c-8.5-1.4-17-2.7-25.5-2.8-2.9,0-9.3.4-12,.5,2.3,1.5,6.9,5.2,11,8.2,7.6-.8,16.4-1.1,26.3-.9,0,0,0,0,.1,0Z"/>
  </g>
  <g id="HATCH22" data-name="HATCH">
    <path class="st0" d="M384.8,488v-5c-8.5-1.4-17-2.7-25.5-2.8-2.9,0-9.3.4-12,.5,2.3,1.5,6.9,5.2,11,8.2,7.6-.8,16.4-1.1,26.3-.9,0,0,0,0,.1,0Z"/>
  </g>
  <g id="SPLINE23" data-name="SPLINE">
    <circle class="st1" cx="484.5" cy="78" r="15.9"/>
  </g>
  <g id="HATCH23" data-name="HATCH">
    <circle class="st0" cx="484.5" cy="78" r="15.9"/>
  </g>
  <g id="SPLINE24" data-name="SPLINE">
    <path class="st1" d="M371.9,121c-7.7-.7-8.6-6.3-7.9-12.7,1.4-12.7,9.9-26.4,4.3-37.9-1.3-.3-1.8-.6-2.2-.5-9.4,3.4-18.6,7.6-28.2,10.1-9.8,2.5-11.6,7.4-6.9,15.9,1.9,3.5,3.7,7.1,5.7,10.5,30.8,53.6,77,88.8,130.7,115.3,7.9,3.9,9.1.5,10.7-6.3,8.6-37.3,11.9-74.8,8.2-112.6-3.9,3.1-8.8,5-14.1,5-12.3,0-22.4-10-22.4-22.4s7.1-19.1,16.7-21.6c-19.5,0-39.1-2-58.8-6.1,0,.2.2.3.2.5-1.5,18.2,24.7,52.2,36.9,78.3,3.3,7,7.2,14.8-2.5,19.4-9.3,4.4-12-3.6-15.1-10.1-11.9-25.3-19.2-58.4-35.6-75.8-1,.1-2,.2-3,.4-11.3,11.6-4.2,26.9-6,40.3-.9,6.8-3.8,11-10.9,10.4Z"/>
  </g>
  <g id="HATCH24" data-name="HATCH">
    <path class="st0" d="M371.9,121c-7.7-.7-8.6-6.3-7.9-12.7,1.4-12.7,9.9-26.4,4.3-37.9-1.3-.3-1.8-.6-2.2-.5-9.4,3.4-18.6,7.6-28.2,10.1-9.8,2.5-11.6,7.4-6.9,15.9,1.9,3.5,3.7,7.1,5.7,10.5,30.8,53.6,77,88.8,130.7,115.3,7.9,3.9,9.1.5,10.7-6.3,8.6-37.3,11.9-74.8,8.2-112.6-3.9,3.1-8.8,5-14.1,5-12.3,0-22.4-10-22.4-22.4s7.1-19.1,16.7-21.6c-19.5,0-39.1-2-58.8-6.1,0,.2.2.3.2.5-1.5,18.2,24.7,52.2,36.9,78.3,3.3,7,7.2,14.8-2.5,19.4-9.3,4.4-12-3.6-15.1-10.1-11.9-25.3-19.2-58.4-35.6-75.8-1,.1-2,.2-3,.4-11.3,11.6-4.2,26.9-6,40.3-.9,6.8-3.8,11-10.9,10.4Z"/>
  </g>
  <g id="SPLINE25" data-name="SPLINE">
    <path class="st1" d="M482.3,38.5c13.3,0,24.2-10.9,24.2-24.2s-.2-3.6-.6-5.3h-12.7c.8,1.6,1.3,3.4,1.3,5.3,0,6.7-5.4,12.1-12.1,12.1s-12.1-5.4-12.1-12.1.5-3.7,1.3-5.3h-12.7c-.4,1.7-.6,3.5-.6,5.3,0,13.3,10.9,24.2,24.2,24.2Z"/>
  </g>
  <g id="HATCH25" data-name="HATCH">
    <path class="st0" d="M482.3,38.5c13.3,0,24.2-10.9,24.2-24.2s-.2-3.6-.6-5.3h-12.7c.8,1.6,1.3,3.4,1.3,5.3,0,6.7-5.4,12.1-12.1,12.1s-12.1-5.4-12.1-12.1.5-3.7,1.3-5.3h-12.7c-.4,1.7-.6,3.5-.6,5.3,0,13.3,10.9,24.2,24.2,24.2Z"/>
  </g>
  <g id="SPLINE26" data-name="SPLINE">
    <path class="st1" d="M439.1,43.2c8.4,0,16.9-.3,25.4-.8-9.2-5.1-15.5-14.9-15.5-26.1s.3-4.9.9-7.3c-12.1,12.4-23.6,24.2-37.1,33.3,7.3.6,16,.8,26.3.9Z"/>
  </g>
  <g id="HATCH26" data-name="HATCH">
    <path class="st0" d="M439.1,43.2c8.4,0,16.9-.3,25.4-.8-9.2-5.1-15.5-14.9-15.5-26.1s.3-4.9.9-7.3c-12.1,12.4-23.6,24.2-37.1,33.3,7.3.6,16,.8,26.3.9Z"/>
  </g>
  <g id="SPLINE27" data-name="SPLINE">
    <path class="st1" d="M509.3,150.3c-2.3,6.5-4.3,14.8-5.9,24.1,2.7,2.9,6.6,4.8,10.9,4.8,8.2,0,14.9-6.7,14.9-14.9s-6.7-14.9-14.9-14.9-3.4.4-5,.9Z"/>
  </g>
  <g id="HATCH27" data-name="HATCH">
    <path class="st0" d="M509.3,150.3c-2.3,6.5-4.3,14.8-5.9,24.1,2.7,2.9,6.6,4.8,10.9,4.8,8.2,0,14.9-6.7,14.9-14.9s-6.7-14.9-14.9-14.9-3.4.4-5,.9Z"/>
  </g>
  <g id="SPLINE28" data-name="SPLINE">
    <path class="st1" d="M363.2,41c8.2,0,14.9-6.7,14.9-14.9s-6.7-14.9-14.9-14.9-14.9,6.7-14.9,14.9,6.7,14.9,14.9,14.9Z"/>
  </g>
  <g id="HATCH28" data-name="HATCH">
    <path class="st0" d="M363.2,41c8.2,0,14.9-6.7,14.9-14.9s-6.7-14.9-14.9-14.9-14.9,6.7-14.9,14.9,6.7,14.9,14.9,14.9Z"/>
  </g>
  <g id="SPLINE29" data-name="SPLINE">
    <path class="st1" d="M579.5,90.8c1.1-3.5,1.8-7.1,1.8-11,0-19.6-15.9-35.6-35.6-35.6s-.4,0-.6,0c-.5-1.5-.8-3.1-.8-4.7,0-7.9,6.4-14.3,14.3-14.3s11,3.6,13.2,8.7c.7-2.4,1.1-4.9,1.1-7.5,0-6.8-2.7-12.9-7-17.4h-36.9c-4.3,4.6-7,10.7-7,17.4s4.1,15.8,10.3,20.4c-13.1,5.3-22.3,18-22.3,33s2.3,14.5,6.3,20.2c5.5-11.9,17.5-20.2,31.5-20.2s20,4.8,26.4,12.3c-5.6,2-10.4,5.6-13.9,10.3-3.1-3.3-7.6-5.4-12.5-5.4-8.8,0-16,6.5-17.1,15,4.5,2.1,9.6,3.3,14.9,3.3s6.5-.5,9.5-1.3c-.4,2-.6,4-.6,6.1,0,16.4,13.4,29.8,29.8,29.8s11.1-1.7,15.7-4.5v-50.6c-4.6-2.8-9.9-4.5-15.7-4.5s-3.3.2-4.9.4Z"/>
  </g>
  <g id="HATCH29" data-name="HATCH">
    <path class="st0" d="M579.5,90.8c1.1-3.5,1.8-7.1,1.8-11,0-19.6-15.9-35.6-35.6-35.6s-.4,0-.6,0c-.5-1.5-.8-3.1-.8-4.7,0-7.9,6.4-14.3,14.3-14.3s11,3.6,13.2,8.7c.7-2.4,1.1-4.9,1.1-7.5,0-6.8-2.7-12.9-7-17.4h-36.9c-4.3,4.6-7,10.7-7,17.4s4.1,15.8,10.3,20.4c-13.1,5.3-22.3,18-22.3,33s2.3,14.5,6.3,20.2c5.5-11.9,17.5-20.2,31.5-20.2s20,4.8,26.4,12.3c-5.6,2-10.4,5.6-13.9,10.3-3.1-3.3-7.6-5.4-12.5-5.4-8.8,0-16,6.5-17.1,15,4.5,2.1,9.6,3.3,14.9,3.3s6.5-.5,9.5-1.3c-.4,2-.6,4-.6,6.1,0,16.4,13.4,29.8,29.8,29.8s11.1-1.7,15.7-4.5v-50.6c-4.6-2.8-9.9-4.5-15.7-4.5s-3.3.2-4.9.4Z"/>
  </g>
  <g id="SPLINE30" data-name="SPLINE">
    <path class="st1" d="M593.3,14.3c2.1-1.2,4.6-1.2,6.7-.3v-5.1h-12.1c-5.9,4.5-7.8,12.7-4.1,19.3.6,1.1,1.4,2.1,2.2,3-5.1,10.1-2.9,22.8,6,30.6,2.4,2.1,5.1,3.6,7.9,4.7V18.8c-3.4,1.3-6.7,3.3-9.4,6.1,0-.1-.2-.2-.2-.3-2-3.6-.7-8.2,2.9-10.3Z"/>
  </g>
  <g id="HATCH30" data-name="HATCH">
    <path class="st0" d="M593.3,14.3c2.1-1.2,4.6-1.2,6.7-.3v-5.1h-12.1c-5.9,4.5-7.8,12.7-4.1,19.3.6,1.1,1.4,2.1,2.2,3-5.1,10.1-2.9,22.8,6,30.6,2.4,2.1,5.1,3.6,7.9,4.7V18.8c-3.4,1.3-6.7,3.3-9.4,6.1,0-.1-.2-.2-.2-.3-2-3.6-.7-8.2,2.9-10.3Z"/>
  </g>
  <g id="SPLINE31" data-name="SPLINE">
    <path class="st1" d="M561.5,164.6c.4-1.2,1.2-2.1,2.2-2.7-9-12.9-17.6-26-26.2-39.2-6.9,2.8-13.5,6.8-18.8,12.1,14.3,2.1,25.4,14.5,25.4,29.4s-13.4,29.8-29.8,29.8-9.3-1.2-13.3-3.2c-5.9,50-4,116.2,2.7,120,9.6,5.6,20.8-1.8,20.8-1.8l47.8-40.8h0s1.5-1.3,1.5-1.3c4.2-3.7,16.4-15.9,25.5-36.8v-10.9c-.6,0-1.1.1-1.7.1-14,0-25.4-11.4-25.4-25.4s11.4-25.4,25.4-25.4,1.1,0,1.7,0v-8.7c-6,1.7-12,3.2-18.2,4.6-2.5.5-5.9.8-9,.7.2,1,.2,2.1-.2,3.2l-25.3,68.3c-1.1,2.8-4.3,4.3-7.1,3.3-2.8-1.1-4.3-4.3-3.3-7.1l25.3-68.3Z"/>
  </g>
  <g id="HATCH31" data-name="HATCH">
    <path class="st0" d="M561.5,164.6c.4-1.2,1.2-2.1,2.2-2.7-9-12.9-17.6-26-26.2-39.2-6.9,2.8-13.5,6.8-18.8,12.1,14.3,2.1,25.4,14.5,25.4,29.4s-13.4,29.8-29.8,29.8-9.3-1.2-13.3-3.2c-5.9,50-4,116.2,2.7,120,9.6,5.6,20.8-1.8,20.8-1.8l47.8-40.8h0s1.5-1.3,1.5-1.3c4.2-3.7,16.4-15.9,25.5-36.8v-10.9c-.6,0-1.1.1-1.7.1-14,0-25.4-11.4-25.4-25.4s11.4-25.4,25.4-25.4,1.1,0,1.7,0v-8.7c-6,1.7-12,3.2-18.2,4.6-2.5.5-5.9.8-9,.7.2,1,.2,2.1-.2,3.2l-25.3,68.3c-1.1,2.8-4.3,4.3-7.1,3.3-2.8-1.1-4.3-4.3-3.3-7.1l25.3-68.3Z"/>
  </g>
  <g id="SPLINE32" data-name="SPLINE">
    <path class="st1" d="M232.9,429c-.2,0-.3-.2-.5-.3-.8-1-1.9-2-3.1-3.1-4.7-4.3-9.1-8.8-13.3-13.4-.7,0-1.5,0-2.2.2-33.5,3.1-45.9,13.5-44.7,40.4.7,16.4,6.9,32.7,8,49.1.5,7.7-3.2,20.7-8.9,22.3-9.3,2.5-22.9-.7-32.6-4.7-3.4-1.4-6.5-3.9-9.1-6.8-6.6-13.4-5.2-31.3-4.3-38.6.2-1,.3-2,.4-3.1,0-.1,0-.2,0-.2h0c2.9-22.1,1.7-54,7.9-64.6,9.5-16.3,65.7-19.2,59.2-30.3,0,0,0,0,0,0-.8-1.5-1.7-3-2.5-4.5-.8-1.5-1.6-2.8-2.4-4,0,0,0,0,0,0,0,0,0,0-.1-.1-.2-.4-.5-.7-.8-1-.3-.3-.5-.7-.8-1,0,0-.1-.2-.2-.3-.5-.6-1-1.1-1.5-1.6-.1-.1-.3-.2-.4-.3-.5-.4-1-.9-1.5-1.3-.2-.1-.4-.3-.6-.4-.5-.3-1-.7-1.5-1-.3-.2-.6-.3-.9-.4-.2-.1-.5-.2-.7-.3-.2-.1-.5-.2-.7-.3-.4-.2-.9-.3-1.4-.4-.4-.1-.8-.3-1.2-.4-.9-.2-1.9-.4-2.9-.6-12.9-1.9-25.6-2.8-38.1-2.8-5.6,0-11.1.2-16.6.6h.2c-61.3,4.1-79.9,21.7-79.9,21.7h0c-1,.5-1.7,1.2-2,1.9,0,0-.1,0-.2,0,0,0,0,.1.1.2,0,.1-.1.3-.1.4,0,.2,0,.5.2.7h0s0,.1,0,.1c0,.2.2.4.3.5l8.7,13.7c21.1,36.8,36.9,75.4,41.8,117.3,1.1,9,8.4,22.3,17.2,25.1,28.2,8.8,57.9,16.1,87.9,19.2,20.9,2.2,32.5-9.9,27.9-27.8-4-15.4-9.1-30.7-12.9-46.1-6.7-27,3.5-46.5,28.6-53.9Z"/>
  </g>
  <g id="HATCH32" data-name="HATCH">
    <path class="st0" d="M232.9,429c-.2,0-.3-.2-.5-.3-.8-1-1.9-2-3.1-3.1-4.7-4.3-9.1-8.8-13.3-13.4-.7,0-1.5,0-2.2.2-33.5,3.1-45.9,13.5-44.7,40.4.7,16.4,6.9,32.7,8,49.1.5,7.7-3.2,20.7-8.9,22.3-9.3,2.5-22.9-.7-32.6-4.7-3.4-1.4-6.5-3.9-9.1-6.8-6.6-13.4-5.2-31.3-4.3-38.6.2-1,.3-2,.4-3.1,0-.1,0-.2,0-.2h0c2.9-22.1,1.7-54,7.9-64.6,9.5-16.3,65.7-19.2,59.2-30.3,0,0,0,0,0,0-.8-1.5-1.7-3-2.5-4.5-.8-1.5-1.6-2.8-2.4-4,0,0,0,0,0,0,0,0,0,0-.1-.1-.2-.4-.5-.7-.8-1-.3-.3-.5-.7-.8-1,0,0-.1-.2-.2-.3-.5-.6-1-1.1-1.5-1.6-.1-.1-.3-.2-.4-.3-.5-.4-1-.9-1.5-1.3-.2-.1-.4-.3-.6-.4-.5-.3-1-.7-1.5-1-.3-.2-.6-.3-.9-.4-.2-.1-.5-.2-.7-.3-.2-.1-.5-.2-.7-.3-.4-.2-.9-.3-1.4-.4-.4-.1-.8-.3-1.2-.4-.9-.2-1.9-.4-2.9-.6-12.9-1.9-25.6-2.8-38.1-2.8-5.6,0-11.1.2-16.6.6h.2c-61.3,4.1-79.9,21.7-79.9,21.7h0c-1,.5-1.7,1.2-2,1.9,0,0-.1,0-.2,0,0,0,0,.1.1.2,0,.1-.1.3-.1.4,0,.2,0,.5.2.7h0s0,.1,0,.1c0,.2.2.4.3.5l8.7,13.7c21.1,36.8,36.9,75.4,41.8,117.3,1.1,9,8.4,22.3,17.2,25.1,28.2,8.8,57.9,16.1,87.9,19.2,20.9,2.2,32.5-9.9,27.9-27.8-4-15.4-9.1-30.7-12.9-46.1-6.7-27,3.5-46.5,28.6-53.9Z"/>
  </g>
  <g id="SPLINE33" data-name="SPLINE">
    <path class="st1" d="M238.9,119.8c38,40,85.9,56.3,139.9,62-16-23.7-34.2-39.4-63-35.6-4.7.6-9.6-.3-14.4-.6-7-.5-11.9-3.4-11.2-11.5.6-7.8,6.2-8.8,12.3-8.5,9.5.6,27.1,9.9,37.5,10.6-1.7-4.3-4-8.1-6.5-11.7-6.1-8.5-14.5-15.2-24-20.5-38.4-21.5-95.1-19.9-95.1-19.9,4.1,13,13.1,24,23.7,34.6.3.3.5.7.8,1.1Z"/>
  </g>
  <g id="HATCH33" data-name="HATCH">
    <path class="st0" d="M238.9,119.8c38,40,85.9,56.3,139.9,62-16-23.7-34.2-39.4-63-35.6-4.7.6-9.6-.3-14.4-.6-7-.5-11.9-3.4-11.2-11.5.6-7.8,6.2-8.8,12.3-8.5,9.5.6,27.1,9.9,37.5,10.6-1.7-4.3-4-8.1-6.5-11.7-6.1-8.5-14.5-15.2-24-20.5-38.4-21.5-95.1-19.9-95.1-19.9,4.1,13,13.1,24,23.7,34.6.3.3.5.7.8,1.1Z"/>
  </g>
  <g id="SPLINE34" data-name="SPLINE">
    <path class="st1" d="M296.5,80.3l-75.8-52.5c-.6,11.1-1.8,24.7-3.8,38.8,0,0,46.2-1.2,79.7,13.7Z"/>
  </g>
  <g id="HATCH34" data-name="HATCH">
    <path class="st0" d="M296.5,80.3l-75.8-52.5c-.6,11.1-1.8,24.7-3.8,38.8,0,0,46.2-1.2,79.7,13.7Z"/>
  </g>
  <g id="SPLINE35" data-name="SPLINE">
    <path class="st1" d="M303.1,66.3c11.7,1.6,28.2-5.6,39.2-10.4,3.7-1.3,7.1-2.6,10.5-3.9-11.3-3.9-19.5-14.4-19.5-26.8s2-11.6,5.3-16.2h-20c-.4,11.4-10.1,20.6-21.9,20.6s-21.5-9.2-21.9-20.6h-51.1l74.1,56.2c1.7.7,3.5,1.1,5.3,1.2Z"/>
  </g>
  <g id="HATCH35" data-name="HATCH">
    <path class="st0" d="M303.1,66.3c11.7,1.6,28.2-5.6,39.2-10.4,3.7-1.3,7.1-2.6,10.5-3.9-11.3-3.9-19.5-14.4-19.5-26.8s2-11.6,5.3-16.2h-20c-.4,11.4-10.1,20.6-21.9,20.6s-21.5-9.2-21.9-20.6h-51.1l74.1,56.2c1.7.7,3.5,1.1,5.3,1.2Z"/>
  </g>
</svg>